<?xml version="1.0" encoding="utf-8"?>
<!-- Generator: Adobe Illustrator 16.0.0, SVG Export Plug-In . SVG Version: 6.00 Build 0)  -->
<!DOCTYPE svg PUBLIC "-//W3C//DTD SVG 1.1//EN" "http://www.w3.org/Graphics/SVG/1.1/DTD/svg11.dtd">
<svg version="1.1" xmlns="http://www.w3.org/2000/svg" xmlns:xlink="http://www.w3.org/1999/xlink" x="0px" y="0px"
	 width="460.801px" height="307.2px" viewBox="0 0 460.801 307.2" enable-background="new 0 0 460.801 307.2" xml:space="preserve">
<g id="Layer_1">
	<g>
		<g>
			<path fill="#007F74" d="M0,0c0,102.39,0,204.811,0,307.2c153.584,0,307.216,0,460.801,0c0-102.39,0-204.81,0-307.2
				C307.216,0,153.584,0,0,0z M456.001,302.4c-150.386,0-300.815,0-451.201,0c0-99.19,0-198.41,0-297.6
				c150.386,0,300.815,0,451.201,0C456.001,103.99,456.001,203.209,456.001,302.4z"/>
		</g>
	</g>
</g>
<g id="Ebene_2">
	<linearGradient id="SVGID_1_" gradientUnits="userSpaceOnUse" x1="230.3997" y1="0" x2="230.3996" y2="307.2002">
		<stop  offset="0" style="stop-color:#3FE6FF"/>
		<stop  offset="1" style="stop-color:#69E279"/>
	</linearGradient>
	<rect x="0" fill="url(#SVGID_1_)" width="460.801" height="307.2"/>
</g>
</svg>
