<?xml version="1.0" encoding="utf-8"?>
<!-- Generator: Adobe Illustrator 16.0.0, SVG Export Plug-In . SVG Version: 6.00 Build 0)  -->
<!DOCTYPE svg PUBLIC "-//W3C//DTD SVG 1.1//EN" "http://www.w3.org/Graphics/SVG/1.1/DTD/svg11.dtd">
<svg version="1.1" id="Ebene_1" xmlns="http://www.w3.org/2000/svg" xmlns:xlink="http://www.w3.org/1999/xlink" x="0px" y="0px"
	 width="132.75px" height="208.25px" viewBox="0 0 132.75 208.25" enable-background="new 0 0 132.75 208.25" xml:space="preserve">
<linearGradient id="SVGID_1_" gradientUnits="userSpaceOnUse" x1="85.834" y1="46.9463" x2="85.834" y2="197.5044" gradientTransform="matrix(0.9127 0.0284 -0.0311 0.9995 -9.5868 8.3112)">
	<stop  offset="0" style="stop-color:#55524D"/>
	<stop  offset="1" style="stop-color:#8B7359"/>
</linearGradient>
<path fill="url(#SVGID_1_)" d="M109.021,133.886c-0.683,21.95,0.557,59.077-8.688,72.489c-2.177,3.159-9.707,0.84-12.667,0.833
	c-8.148-0.02-16.498,0.427-24.833,0.167c-6.927-0.214-20.397,0.406-28.833-0.167c-3.835-0.261-6.113-0.552-8.333-3.666
	c-9.98-14.011-5.124-48.226-4.374-72.382c1.284-41.336,21.965-74.238,46.194-73.484C91.711,58.429,110.306,92.548,109.021,133.886z"
	/>
<radialGradient id="SVGID_2_" cx="84.0713" cy="174.3965" r="63.9293" gradientTransform="matrix(0.8808 -0.0322 0.0333 0.9127 -14.0332 6.9507)" gradientUnits="userSpaceOnUse">
	<stop  offset="0" style="stop-color:#BC956C"/>
	<stop  offset="1" style="stop-color:#816E60"/>
</radialGradient>
<path fill="url(#SVGID_2_)" d="M132.587,173.519c0.44,12.052-3.181,31.31-14.753,33.189c-19.5,3.167-31.939-2.502-54.834-1.666
	c-27.105,0.99-30.122,3.737-52.5-1.667c-7.817-1.888-10.208-16.657-10.513-25.012c-1.175-32.152,27.556-59.309,64.173-60.647
	C100.775,116.378,131.412,141.366,132.587,173.519z"/>
<radialGradient id="SVGID_3_" cx="23.6157" cy="120.3125" r="58.515" gradientTransform="matrix(0.7429 0.0231 -0.0321 1.0343 51.1066 16.352)" gradientUnits="userSpaceOnUse">
	<stop  offset="0" style="stop-color:#BC956C"/>
	<stop  offset="1" style="stop-color:#816E60"/>
</radialGradient>
<path fill="url(#SVGID_3_)" d="M103.289,142.532c-1.146,36.844-19.317,66.179-40.582,65.517
	c-21.267-0.663-37.577-31.066-36.432-67.915c1.144-36.845,19.312-66.178,40.578-65.517
	C88.12,75.279,104.435,105.682,103.289,142.532z"/>
<g opacity="0.75">
	
		<radialGradient id="SVGID_4_" cx="108.6875" cy="201.7949" r="9.6063" gradientTransform="matrix(0.9993 -0.0365 0.0365 0.9993 -4.2089 2.6792)" gradientUnits="userSpaceOnUse">
		<stop  offset="0" style="stop-color:#704D3D"/>
		<stop  offset="1" style="stop-color:#634438"/>
	</radialGradient>
	<path fill="url(#SVGID_4_)" d="M100.472,202.355c0.033,1.896,0.319,4.204,1.999,5.093c2.696,1.427,6.586-0.177,10.529-0.24
		c5.034-0.081,7.334-0.5,9.687-2.326c0.774-0.601,0.537-1.888,0.521-2.896c-0.083-5.1-5.239-9.145-11.514-9.044
		C105.414,193.045,100.396,197.26,100.472,202.355z"/>
	<path fill="#3F1717" d="M119.8,195.528c0,0,1.731,2.825,0.459,8.224c0,0-0.914-8.207-1.644-8.975L119.8,195.528z"/>
	<path fill="#3F1717" d="M115.967,193.594c0,0,1.037,5.293,0.584,10.418c0,0-1.864-6.613-2.156-10.808
		C114.395,193.204,115.154,193.226,115.967,193.594z"/>
	<path fill="#3F1717" d="M110.605,193.035c0,0,1.065,4.448-0.368,10.317c0,0-1.165-6.092-1.154-10.144
		C109.083,193.209,109.879,192.853,110.605,193.035z"/>
	<path fill="#3F1717" d="M105.703,194.445c0,0,0.55,3.663-0.995,9.189c0,0-0.886-4.951-0.703-8.125
		C104.005,195.51,105.285,194.569,105.703,194.445z"/>
</g>
<g opacity="0.75">
	
		<radialGradient id="SVGID_5_" cx="-191.1504" cy="183.9971" r="9.059" gradientTransform="matrix(-0.9973 -0.0736 -0.0736 0.9973 -159.6596 0.5664)" gradientUnits="userSpaceOnUse">
		<stop  offset="0" style="stop-color:#704D3D"/>
		<stop  offset="1" style="stop-color:#634438"/>
	</radialGradient>
	<path fill="url(#SVGID_5_)" d="M27.83,199.847c-0.084,1.596-0.706,3.061-1.716,4.287c-1.963,2.382-5.934,1.793-9.613,0.741
		c-3.5-1-4.167,0-8.836-2.498c-1.112-0.595-0.856-2.362-0.787-3.646c0.25-4.7,5.144-8.26,10.932-7.949
		C23.593,191.091,28.08,195.146,27.83,199.847z"/>
	<path fill="#3F1717" d="M10.239,192.89c0,0-1.694,2.544-0.704,7.565c0,0,1.127-7.536,1.822-8.222L10.239,192.89z"/>
	<path fill="#3F1717" d="M13.845,191.239c0,0-1.138,4.847-0.898,9.583c0,0,1.944-6.037,2.361-9.895
		C15.308,190.928,14.603,190.924,13.845,191.239z"/>
	<path fill="#3F1717" d="M18.801,190.9c0,0-1.129,4.071-0.006,9.529c0,0,1.281-5.575,1.412-9.313
		C20.207,191.116,19.481,190.76,18.801,190.9z"/>
	<path fill="#3F1717" d="M23.278,192.374c0,0-0.634,3.358,0.606,8.505c0,0,0.983-4.533,0.926-7.469
		C24.81,193.41,23.66,192.504,23.278,192.374z"/>
</g>
<radialGradient id="SVGID_6_" cx="64.042" cy="106.6299" r="21.0896" gradientTransform="matrix(0.9198 0.3924 -0.3924 0.9198 7.1181 45.3573)" gradientUnits="userSpaceOnUse">
	<stop  offset="0" style="stop-color:#8B7359"/>
	<stop  offset="1" style="stop-color:#604141"/>
</radialGradient>
<path opacity="0.25" fill="url(#SVGID_6_)" d="M11.194,183.429c0,0,12.087-58.942,26.607-37.462c0,0-2.345,28.688-14.123,44.348
	C11.901,205.974,11.194,183.429,11.194,183.429z"/>
<radialGradient id="SVGID_7_" cx="-238.9644" cy="216.0039" r="21.0876" gradientTransform="matrix(-0.9518 0.3068 0.3068 0.9518 -189.3823 38.7035)" gradientUnits="userSpaceOnUse">
	<stop  offset="0" style="stop-color:#8B7359"/>
	<stop  offset="1" style="stop-color:#604141"/>
</radialGradient>
<path opacity="0.25" fill="url(#SVGID_7_)" d="M115.897,186.959c0,0-6.646-59.799-23.068-39.73c0,0-0.289,28.775,10.01,45.445
	C113.137,209.348,115.897,186.959,115.897,186.959z"/>
<path fill="#3F1717" d="M44.401,120.245c0,0,9.948,29.694,3.138,68.542c-6.813,38.838-6.893,1.681-6.893,1.681l-0.501-12.143
	l-1.326-51.853"/>
<radialGradient id="SVGID_8_" cx="10.4844" cy="167.4707" r="46.3178" gradientTransform="matrix(0.9633 -0.2685 0.2685 0.9633 -17.3658 -17.507)" gradientUnits="userSpaceOnUse">
	<stop  offset="0" style="stop-color:#BC956C"/>
	<stop  offset="1" style="stop-color:#816E60"/>
</radialGradient>
<path fill="url(#SVGID_8_)" d="M47.999,122.106C43.681,152.831,52,203.208,52,203.208l-12.333,0.667l-1.499-6.426
	c0.945-18.912-14.111-66.68-14.111-66.68c-4.198-48.061,4.88-73.466,13.316-34.292C39.038,104.207,47.999,122.106,47.999,122.106z"
	/>
<g>
	
		<radialGradient id="SVGID_9_" cx="57.3877" cy="173.6973" r="12.5431" gradientTransform="matrix(0.9982 0.0608 -0.052 0.8543 0.4652 47.1861)" gradientUnits="userSpaceOnUse">
		<stop  offset="0" style="stop-color:#BC956C"/>
		<stop  offset="1" style="stop-color:#816E60"/>
	</radialGradient>
	<path fill="url(#SVGID_9_)" d="M62.572,201.967c-0.13,2.143-0.319,5.106-2.36,5.736c-4.878,1.505-7.293,0.146-12.378-0.161
		c-4.53-0.277-7,1-10.782-0.208c-2.506-0.801-2.608-4.477-2.451-7.069c0.381-6.273,6.953-10.971,14.681-10.499
		C57.003,190.238,62.954,195.699,62.572,201.967z"/>
	<path fill="#3F1717" d="M39.154,192.499c0,0-2.289,3.384-1.019,10.104c0,0,1.581-10.055,2.516-10.963L39.154,192.499z"/>
	<path fill="#3F1717" d="M43.982,190.337c0,0-1.571,6.451-1.295,12.789c0,0,2.657-8.044,3.255-13.198
		C45.942,189.928,44.999,189.922,43.982,190.337z"/>
	<path fill="#3F1717" d="M50.609,189.936c0,0-1.554,5.417-0.111,12.721c0,0,1.771-7.436,1.979-12.422
		C52.476,190.234,51.515,189.754,50.609,189.936z"/>
	<path fill="#3F1717" d="M56.571,191.941c0,0-0.888,4.48,0.721,11.371c0,0,1.358-6.051,1.314-9.966
		C58.606,193.347,57.077,192.122,56.571,191.941z"/>
</g>
<path fill="#3F1717" d="M89.647,118.021c0,0-13.169,28.41-10.698,67.768c2.485,39.356,6.671,2.432,6.671,2.432l1.835-12.011
	l7.052-51.384"/>
<radialGradient id="SVGID_10_" cx="210.2285" cy="70.958" r="47.5624" gradientTransform="matrix(-0.9366 -0.3503 -0.3503 0.9366 314.3685 150.7894)" gradientUnits="userSpaceOnUse">
	<stop  offset="0" style="stop-color:#BC956C"/>
	<stop  offset="1" style="stop-color:#816E60"/>
</radialGradient>
<path fill="url(#SVGID_10_)" d="M84.508,122.185c1.663,30.98-11.174,84.19-11.174,84.19l11.833,0.167l2.655-8.445
	c0.688-18.928,19.795-65.218,19.795-65.218c8.315-47.522,1.456-73.617-10.318-35.313C94.979,105.124,84.508,122.185,84.508,122.185z
	"/>
<g>
	
		<radialGradient id="SVGID_11_" cx="235.2363" cy="171.4688" r="12.4001" gradientTransform="matrix(-0.9979 -0.0642 -0.055 0.8541 323.5035 68.3235)" gradientUnits="userSpaceOnUse">
		<stop  offset="0" style="stop-color:#BC956C"/>
		<stop  offset="1" style="stop-color:#816E60"/>
	</radialGradient>
	<path fill="url(#SVGID_11_)" d="M65.182,201.127c-0.143,2.223-0.31,5.371,1.757,6.187c5.228,2.062,7.415-0.423,12.395-0.105
		c5.701,0.367,6.833,1.834,12.309,0.257c1.551-0.446,1.397-2.896,1.504-4.539c0.407-6.27-5.527-11.751-13.255-12.253
		C72.171,190.18,65.585,194.858,65.182,201.127z"/>
	<path fill="#3F1717" d="M89.598,194.656c0,0,1.851,3.641-0.249,10.146c0,0-0.317-10.175-1.129-11.187L89.598,194.656z"/>
	<path fill="#3F1717" d="M85.08,191.902c0,0,0.747,6.604-0.314,12.858c0,0-1.635-8.319-1.585-13.498
		C83.181,191.263,84.122,191.371,85.08,191.902z"/>
	<path fill="#3F1717" d="M78.553,190.682c0,0,0.868,5.573-1.475,12.638c0,0-0.833-7.6-0.42-12.568
		C76.658,190.751,77.678,190.387,78.553,190.682z"/>
	<path fill="#3F1717" d="M72.386,191.93c0,0,0.32,4.555-2.133,11.187c0,0-0.595-6.173-0.064-10.049
		C70.189,193.067,71.861,192.038,72.386,191.93z"/>
</g>
<path fill="#3F1717" d="M110.44,75.242c-0.594,19.304-19.889,34.366-43.094,33.644c-23.205-0.718-41.526-16.953-40.928-36.254
	c0.6-19.304,19.897-34.367,43.099-33.646C92.723,39.709,111.046,55.938,110.44,75.242z"/>
<path fill="#EAB148" d="M67.537,108.881c-0.24,1.525-1.102,2.659-1.928,2.53c-0.829-0.128-1.31-1.469-1.072-2.994
	c0.234-1.527,1.099-2.659,1.928-2.532C67.291,106.016,67.77,107.356,67.537,108.881z"/>
<path fill="#3F1717" d="M73.839,111.952c-0.056,1.886-3.821,3.299-8.405,3.157c-4.582-0.143-8.25-1.786-8.19-3.672
	c0.06-1.888,3.821-3.302,8.402-3.159C70.23,108.418,73.898,110.063,73.839,111.952z"/>
<ellipse transform="matrix(0.9995 0.031 -0.031 0.9995 3.4975 -1.98)" fill="#EAB148" cx="65.541" cy="111.694" rx="7.278" ry="2.993"/>
<linearGradient id="SVGID_12_" gradientUnits="userSpaceOnUse" x1="65.231" y1="100.418" x2="71.2173" y2="100.418" gradientTransform="matrix(0.9995 0.0311 -0.0311 0.9995 -2.3459 8.5355)">
	<stop  offset="0" style="stop-color:#F9EF8A"/>
	<stop  offset="1" style="stop-color:#FFE867"/>
</linearGradient>
<path opacity="0.65" fill="url(#SVGID_12_)" d="M65.717,111.115c0.026-0.86-1.292-1.599-2.944-1.647
	c-1.65-0.052-3.014,0.602-3.039,1.461c-0.026,0.859,1.292,1.596,2.944,1.649C64.331,112.629,65.691,111.974,65.717,111.115z"/>
<g>
	
		<linearGradient id="SVGID_13_" gradientUnits="userSpaceOnUse" x1="74.041" y1="94.0596" x2="74.041" y2="7.5679" gradientTransform="matrix(0.9995 0.0311 -0.0311 0.9995 -2.3459 8.5355)">
		<stop  offset="0" style="stop-color:#55524D"/>
		<stop  offset="1" style="stop-color:#8B7359"/>
	</linearGradient>
	<path fill="url(#SVGID_13_)" d="M18.444,63.894c0,0,8.22-48.836,52.852-45.438c44.63,3.395,52.558,44.861,49.497,56.997
		c-3.056,12.136-30.108,30.732-52.017,29.38C46.869,103.484,23.297,91.022,18.444,63.894z"/>
	
		<radialGradient id="SVGID_14_" cx="74.041" cy="44.2056" r="43.2855" gradientTransform="matrix(0.9995 0.0311 -0.0311 0.9995 -2.3459 8.5355)" gradientUnits="userSpaceOnUse">
		<stop  offset="0" style="stop-color:#BC956C"/>
		<stop  offset="1" style="stop-color:#816E60"/>
	</radialGradient>
	<path fill="url(#SVGID_14_)" d="M21.033,56.758c0,0,7.672-41.15,50.26-38.132c42.591,3.019,50.297,38.004,47.419,48.226
		c-2.872,10.224-28.611,25.808-49.519,24.593C48.286,90.229,25.756,79.645,21.033,56.758z"/>
</g>
<g>
	<path fill="#715F51" d="M37.457,45.114c0,0,3.064-1.579,10.129-2.364c7.06-0.787,10.612-1.85,13.573,5.279
		c2.963,7.129,2.587,13.819,2.587,13.819s-4.965-1.998-13.372-1.085C41.969,61.677,37.457,45.114,37.457,45.114z"/>
	<path fill="#EAB148" d="M38.862,46.968c0,0,2.522-1.568,8.532-2.731c6.011-1.167,8.989-2.324,12.025,3.594
		c3.036,5.917,3.24,12.668,3.24,12.668s-4.467-2.351-11.622-0.987C43.882,60.877,38.862,46.968,38.862,46.968z"/>
	
		<linearGradient id="SVGID_15_" gradientUnits="userSpaceOnUse" x1="56.6812" y1="46.2388" x2="56.6812" y2="33.1289" gradientTransform="matrix(0.9995 0.0311 -0.0311 0.9995 -2.3459 8.5355)">
		<stop  offset="0" style="stop-color:#4B2B1E"/>
		<stop  offset="1" style="stop-color:#83533F"/>
	</linearGradient>
	<path fill="url(#SVGID_15_)" d="M53.729,43.422c0,0-4.673,6.005-3.988,12.992c0,0,5.722-7.772,6.759-11.991L53.729,43.422z"/>
	
		<linearGradient id="SVGID_16_" gradientUnits="userSpaceOnUse" x1="50.9731" y1="43.5117" x2="50.9731" y2="35.1421" gradientTransform="matrix(0.9995 0.0311 -0.0311 0.9995 -2.3459 8.5355)">
		<stop  offset="0" style="stop-color:#F9EF8A"/>
		<stop  offset="1" style="stop-color:#FFE867"/>
	</linearGradient>
	<path opacity="0.65" fill="url(#SVGID_16_)" d="M52.899,49.597c-0.072,2.311-2.603,4.106-5.651,4.011
		c-3.046-0.095-5.46-2.044-5.386-4.355c0.072-2.308,2.6-4.103,5.646-4.011C50.557,45.34,52.972,47.289,52.899,49.597z"/>
	<path fill="#21221C" d="M48.078,44.661c6.008-1.163,8.276-1.79,11.309,4.128c2.282,4.446,2.928,8.806,3.108,10.703
		c0.058,0.018,0.098,0.026,0.098,0.026s-0.139-5.771-3.174-11.688c-3.036-5.917-6.014-4.761-12.025-3.594
		c-6.01,1.163-8.532,2.731-8.532,2.731l0.168,0.042C42.842,45.699,43.299,45.587,48.078,44.661z"/>
</g>
<g>
	<path fill="#715F51" d="M107.902,57.935c0,0-2.216-2.64-8.428-6.091c-6.211-3.451-9.082-5.801-14.563-0.366
		c-5.484,5.434-7.721,11.75-7.721,11.75s5.354,0.075,12.756,4.158C97.348,71.472,107.902,57.935,107.902,57.935z"/>
	<path fill="#EAB148" d="M105.891,59.103c0,0-1.717-2.422-6.814-5.814c-5.099-3.392-7.393-5.609-12.478-1.324
		c-5.085,4.289-7.878,10.439-7.878,10.439s5.025-0.445,11.1,3.573C95.894,69.994,105.891,59.103,105.891,59.103z"/>
	
		<linearGradient id="SVGID_17_" gradientUnits="userSpaceOnUse" x1="300.5293" y1="100.2983" x2="300.5293" y2="87.187" gradientTransform="matrix(-0.9341 -0.357 -0.357 0.9341 405.8162 76.1202)">
		<stop  offset="0" style="stop-color:#4B2B1E"/>
		<stop  offset="1" style="stop-color:#83533F"/>
	</linearGradient>
	<path fill="url(#SVGID_17_)" d="M93.543,50.095c0,0,1.996,7.343-1.337,13.526c0,0-2.278-9.38-1.602-13.671L93.543,50.095z"/>
	
		<linearGradient id="SVGID_18_" gradientUnits="userSpaceOnUse" x1="343.4512" y1="103.5903" x2="343.4512" y2="95.2202" gradientTransform="matrix(-0.7353 -0.2811 -0.4245 1.1105 382.9991 43.433)">
		<stop  offset="0" style="stop-color:#F9EF8A"/>
		<stop  offset="1" style="stop-color:#FFE867"/>
	</linearGradient>
	<path opacity="0.65" fill="url(#SVGID_18_)" d="M84.199,55.74c-0.983,2.565,0.042,5.342,2.282,6.199
		c2.245,0.858,4.854-0.527,5.839-3.095c0.978-2.568-0.042-5.342-2.287-6.201C87.793,51.787,85.183,53.173,84.199,55.74z"/>
	<path fill="#21221C" d="M98.281,53.419c-5.092-3.393-6.942-4.844-12.027-0.559c-3.818,3.222-6.099,6.999-7,8.674
		c-0.06-0.008-0.1-0.011-0.1-0.011s2.359-5.271,7.444-9.56c5.085-4.286,7.379-2.068,12.478,1.324
		c5.098,3.393,6.814,5.814,6.814,5.814l-0.17-0.026C102.708,56.397,102.337,56.118,98.281,53.419z"/>
</g>
<g>
	
		<linearGradient id="SVGID_19_" gradientUnits="userSpaceOnUse" x1="45.606" y1="26.5996" x2="58.7125" y2="-11.1663" gradientTransform="matrix(1 0.0036 -0.0036 1 -4.3469 13.5752)">
		<stop  offset="0" style="stop-color:#7C5F51"/>
		<stop  offset="1" style="stop-color:#927660"/>
	</linearGradient>
	<path fill="url(#SVGID_19_)" d="M30.474,36.587c0,0,9.205-26.848,17.766-36.13L60.5,19.462
		C60.5,19.462,46.658,33.994,30.474,36.587z"/>
	
		<linearGradient id="SVGID_20_" gradientUnits="userSpaceOnUse" x1="43.1006" y1="1.1621" x2="52.566" y2="6.627" gradientTransform="matrix(1 0.0036 -0.0036 1 -4.3469 13.5752)">
		<stop  offset="0" style="stop-color:#F2926A"/>
		<stop  offset="1" style="stop-color:#EF7E5F"/>
	</linearGradient>
	<path fill="url(#SVGID_20_)" d="M48.106-0.069c0,0,0.298,12.932-0.323,16.836c-0.721,4.504,0.771,6.501-6.672,11.512
		c-7.444,5.012-6.91,4.35-6.91,4.35s0.302-10.341,3.639-16.161C41.177,10.648,46.774,1.519,48.106-0.069z"/>
	<path fill="#F7B08F" d="M47.153,16.828c0,0-1.082-2.703-3.826-4.372c0,0,3.513,4.58,3.717,5.667
		C47.245,19.215,47.153,16.828,47.153,16.828z"/>
	<path fill="#F7B08F" d="M46.934,21.586c0,0-1.041-2.885-5.508-4.568c0,0,3.505,2.525,4.995,5.612L46.934,21.586z"/>
	<path fill="#61604E" d="M48.286,0.088c0,0-0.093,11.729-0.924,15.596c-1.006,4.666,1.085,6.351-6.192,11.752
		c-5.519,4.101-6.837,4.695-6.964,5.05c-0.004,0.092-0.004,0.144-0.004,0.144s-0.534,0.662,6.91-4.35
		c7.444-5.01,5.951-7.008,6.672-11.512C48.405,12.863,48.286,0.088,48.286,0.088z"/>
</g>
<g>
	
		<linearGradient id="SVGID_21_" gradientUnits="userSpaceOnUse" x1="266.8008" y1="80.2529" x2="279.9073" y2="42.487" gradientTransform="matrix(-0.9541 -0.2996 -0.2996 0.9541 384.0797 55.0575)">
		<stop  offset="0" style="stop-color:#7C5F51"/>
		<stop  offset="1" style="stop-color:#927660"/>
	</linearGradient>
	<path fill="url(#SVGID_21_)" d="M116.814,51.347c0,0-0.634-28.375-5.981-39.814L93.391,25.925
		C93.391,25.925,102.175,43.97,116.814,51.347z"/>
	
		<linearGradient id="SVGID_22_" gradientUnits="userSpaceOnUse" x1="264.2939" y1="54.8145" x2="273.7585" y2="60.2788" gradientTransform="matrix(-0.9541 -0.2996 -0.2996 0.9541 384.0797 55.0575)">
		<stop  offset="0" style="stop-color:#F2926A"/>
		<stop  offset="1" style="stop-color:#EF7E5F"/>
	</linearGradient>
	<path fill="url(#SVGID_22_)" d="M111.114,11.07c0,0-4.199,12.231-4.785,16.144c-0.68,4.507-2.706,5.959,2.866,12.99
		c5.573,7.031,5.267,6.241,5.267,6.241s2.843-9.944,1.432-16.505C114.478,23.382,111.909,12.987,111.114,11.07z"/>
	<path fill="#F7B08F" d="M106.908,27.461c0,0,1.85-2.247,4.973-3.006c0,0-4.734,3.295-5.265,4.273
		C106.097,29.705,106.908,27.461,106.908,27.461z"/>
	<path fill="#F7B08F" d="M105.677,32.063c0,0,1.862-2.436,6.628-2.689c0,0-4.106,1.349-6.457,3.837L105.677,32.063z"/>
	<path fill="#61604E" d="M110.899,11.163c0,0-3.468,11.206-3.845,15.142c-0.451,4.754-2.958,5.725,2.34,13.078
		c4.011,5.579,5.093,6.545,5.102,6.927c-0.017,0.085-0.034,0.135-0.034,0.135s0.307,0.791-5.267-6.241
		c-5.572-7.031-3.546-8.482-2.866-12.99C106.915,23.301,110.899,11.163,110.899,11.163z"/>
</g>
<g>
	
		<radialGradient id="SVGID_23_" cx="76.6582" cy="20.7046" r="13.4631" gradientTransform="matrix(0.9995 0.0311 -0.0311 0.9995 -2.3459 8.5355)" gradientUnits="userSpaceOnUse">
		<stop  offset="0" style="stop-color:#BC9B79"/>
		<stop  offset="1" style="stop-color:#B8997A"/>
	</radialGradient>
	<path fill="url(#SVGID_23_)" d="M59.458,41.478c0,0,18.579-2.669,27.625,3.609c0,0,0.421-21.608-1.008-23.774
		c-1.43-2.169-18.029-2.936-18.029-2.936S60.307,30.134,59.458,41.478z"/>
	
		<linearGradient id="SVGID_24_" gradientUnits="userSpaceOnUse" x1="76.6592" y1="30.1309" x2="76.6592" y2="56.2393" gradientTransform="matrix(0.9995 0.0311 -0.0311 0.9995 -2.3459 8.5355)">
		<stop  offset="0" style="stop-color:#B8997A"/>
		<stop  offset="1" style="stop-color:#E5C9A2"/>
	</linearGradient>
	<path fill="url(#SVGID_24_)" d="M59.458,41.478c0,0,17.575-2.7,27.625,3.609c0,0-7.907,1.252-12.687,18.224
		c0,0,3.945,1.747,5.25,4.038c0,0-4.705-5.395-19.028-2.842c0,0,0.822-2.35,6.203-2.684C66.82,61.823,68.422,46.503,59.458,41.478z"
		/>
</g>
<g>
	
		<linearGradient id="SVGID_25_" gradientUnits="userSpaceOnUse" x1="73.9561" y1="65.9907" x2="73.9561" y2="52.3901" gradientTransform="matrix(0.9995 0.0311 -0.0311 0.9995 -2.3459 8.5355)">
		<stop  offset="0" style="stop-color:#9D7D65"/>
		<stop  offset="1" style="stop-color:#9D7B60"/>
	</linearGradient>
	<path fill="url(#SVGID_25_)" d="M70.129,63.318c0,0,12.942,1.339,7.552,6.793c-5.39,5.454-10.693,12.383-16.152-1.44
		C61.528,68.67,56.657,61.83,70.129,63.318z"/>
	<path fill="#4A4742" d="M69.829,68.288l-0.221,4.667c0,0,4.069,0.605,6.955-1.671c0,0-1.66,3.213-7.713,2.997
		c-6.059-0.22-7.3-5.574-7.3-5.574s1.674,3.556,6.729,4.208l0.667-5.043L69.829,68.288z"/>
	
		<linearGradient id="SVGID_26_" gradientUnits="userSpaceOnUse" x1="73.6982" y1="58.1807" x2="73.6982" y2="54.9238" gradientTransform="matrix(0.9995 0.0311 -0.0311 0.9995 -2.3459 8.5355)">
		<stop  offset="0" style="stop-color:#752D29"/>
		<stop  offset="1" style="stop-color:#A23F39"/>
	</linearGradient>
	<path fill="url(#SVGID_26_)" d="M67.772,68.031c0,0-4.168-3.231,1.862-2.146c6.031,1.09,1.56,2.76,1.56,2.76
		S69.514,69.731,67.772,68.031z"/>
</g>
<linearGradient id="SVGID_27_" gradientUnits="userSpaceOnUse" x1="104.8848" y1="60.7339" x2="85.0273" y2="60.7339" gradientTransform="matrix(0.9995 0.0311 -0.0311 0.9995 -2.3459 8.5355)">
	<stop  offset="0" style="stop-color:#E5C8A2"/>
	<stop  offset="1" style="stop-color:#AD8C69"/>
</linearGradient>
<path fill="url(#SVGID_27_)" d="M80.843,69.01c0,0,15.192,1.721,19.67,6.357C100.513,75.367,94.247,71.925,80.843,69.01z"/>
<linearGradient id="SVGID_28_" gradientUnits="userSpaceOnUse" x1="146.7246" y1="49.3682" x2="146.7246" y2="49.3682" gradientTransform="matrix(0.9995 0.0311 -0.0311 0.9995 -2.3459 8.5355)">
	<stop  offset="0" style="stop-color:#E5C8A2"/>
	<stop  offset="1" style="stop-color:#AD8C69"/>
</linearGradient>
<path fill="url(#SVGID_28_)" d="M142.774,62.436"/>
<linearGradient id="SVGID_29_" gradientUnits="userSpaceOnUse" x1="96.8965" y1="64.606" x2="83.2764" y2="64.606" gradientTransform="matrix(0.9995 0.0311 -0.0311 0.9995 -2.3459 8.5355)">
	<stop  offset="0" style="stop-color:#E5C8A2"/>
	<stop  offset="1" style="stop-color:#AD8C69"/>
</linearGradient>
<path fill="url(#SVGID_29_)" d="M79.054,70.202c0,0,12.267,7.506,13.273,11.411C92.327,81.613,85.411,74.898,79.054,70.202z"/>
<linearGradient id="SVGID_30_" gradientUnits="userSpaceOnUse" x1="64.0449" y1="54.7759" x2="41.4385" y2="54.7759" gradientTransform="matrix(0.9995 0.0311 -0.0311 0.9995 -2.3459 8.5355)">
	<stop  offset="0" style="stop-color:#E5C8A2"/>
	<stop  offset="1" style="stop-color:#AD8C69"/>
</linearGradient>
<path fill="url(#SVGID_30_)" d="M37.353,65.158c0,0,16.429-1.866,22.607,0.328C59.96,65.486,42.733,64.95,37.353,65.158z"/>
<linearGradient id="SVGID_31_" gradientUnits="userSpaceOnUse" x1="63.1699" y1="62.1069" x2="46.1846" y2="62.1069" gradientTransform="matrix(0.9995 0.0311 -0.0311 0.9995 -2.3459 8.5355)">
	<stop  offset="0" style="stop-color:#E5C8A2"/>
	<stop  offset="1" style="stop-color:#AD8C69"/>
</linearGradient>
<path fill="url(#SVGID_31_)" d="M58.969,69.204c0,0-8.978,0.931-17.186,6.212C41.783,75.416,55.749,70.316,58.969,69.204z"/>
<linearGradient id="SVGID_32_" gradientUnits="userSpaceOnUse" x1="59.7959" y1="57.1123" x2="59.7959" y2="57.1123" gradientTransform="matrix(0.9995 0.0311 -0.0311 0.9995 -2.3459 8.5355)">
	<stop  offset="0" style="stop-color:#E5C8A2"/>
	<stop  offset="1" style="stop-color:#AD8C69"/>
</linearGradient>
<path fill="url(#SVGID_32_)" d="M55.647,67.476"/>
</svg>
