<?xml version="1.0" encoding="utf-8"?>
<!-- Generator: Adobe Illustrator 16.0.0, SVG Export Plug-In . SVG Version: 6.00 Build 0)  -->
<!DOCTYPE svg PUBLIC "-//W3C//DTD SVG 1.1//EN" "http://www.w3.org/Graphics/SVG/1.1/DTD/svg11.dtd">
<svg version="1.1" id="Ebene_1" xmlns="http://www.w3.org/2000/svg" xmlns:xlink="http://www.w3.org/1999/xlink" x="0px" y="0px"
	 width="132.75px" height="208.25px" viewBox="0 0 132.75 208.25" enable-background="new 0 0 132.75 208.25" xml:space="preserve">
<linearGradient id="SVGID_1_" gradientUnits="userSpaceOnUse" x1="97.0859" y1="46.4678" x2="97.0859" y2="197.0298" gradientTransform="matrix(-0.9127 0.0284 0.0311 0.9995 152.5661 8.4686)">
	<stop  offset="0" style="stop-color:#55524D"/>
	<stop  offset="1" style="stop-color:#8B7359"/>
</linearGradient>
<path fill="url(#SVGID_1_)" d="M23.68,133.886c0.683,21.95-0.557,59.077,8.688,72.489c2.177,3.159,9.707,0.84,12.667,0.833
	c8.148-0.02,16.498,0.427,24.833,0.167c6.928-0.214,20.398,0.406,28.834-0.167c3.835-0.261,6.113-0.552,8.333-3.666
	c9.979-14.011,5.124-48.226,4.374-72.382c-1.285-41.336-21.966-74.238-46.194-73.484C40.99,58.429,22.396,92.548,23.68,133.886z"/>
<radialGradient id="SVGID_2_" cx="95.5625" cy="175.2373" r="63.9293" gradientTransform="matrix(-0.8814 -0.0495 -0.0244 1.1574 154.9371 -46.5967)" gradientUnits="userSpaceOnUse">
	<stop  offset="0" style="stop-color:#50402C"/>
	<stop  offset="1" style="stop-color:#312921"/>
</radialGradient>
<path fill="url(#SVGID_2_)" d="M-0.247,163.645c-0.322,15.283,3.489,39.746,15.084,42.244c19.538,4.208,31.926-2.86,54.837-1.575
	c27.125,1.521,30.168,5.036,52.502-1.6c7.802-2.318,10.049-21.029,10.272-31.623c0.858-40.772-28.148-75.5-64.792-77.557
	C31.016,91.478,0.613,122.873-0.247,163.645z"/>
<radialGradient id="SVGID_3_" cx="36.1455" cy="119.6553" r="58.5119" gradientTransform="matrix(-0.7429 0.0231 0.0321 1.0343 90.9299 16.7385)" gradientUnits="userSpaceOnUse">
	<stop  offset="0" style="stop-color:#50402C"/>
	<stop  offset="1" style="stop-color:#312921"/>
</radialGradient>
<path fill="url(#SVGID_3_)" d="M29.412,142.532c1.146,36.844,19.317,66.179,40.582,65.517c21.267-0.663,37.577-31.066,36.432-67.915
	c-1.144-36.845-19.312-66.178-40.578-65.517C44.581,75.279,28.267,105.682,29.412,142.532z"/>
<g opacity="0.75">
	
		<radialGradient id="SVGID_4_" cx="119.0898" cy="202.332" r="9.6067" gradientTransform="matrix(-0.9993 -0.0365 -0.0365 0.9993 147.3185 2.5273)" gradientUnits="userSpaceOnUse">
		<stop  offset="0" style="stop-color:#473024"/>
		<stop  offset="1" style="stop-color:#2B1A10"/>
	</radialGradient>
	<path fill="url(#SVGID_4_)" d="M32.229,202.355c-0.033,1.896-0.319,4.204-1.999,5.093c-2.696,1.427-6.586-0.177-10.529-0.24
		c-5.034-0.081-7.334-0.5-9.687-2.326c-0.774-0.601-0.537-1.888-0.521-2.896c0.083-5.1,5.239-9.145,11.514-9.044
		C27.287,193.045,32.306,197.26,32.229,202.355z"/>
	<path fill="#3F1717" d="M12.901,195.528c0,0-1.731,2.825-0.459,8.224c0,0,0.914-8.207,1.644-8.975L12.901,195.528z"/>
	<path fill="#3F1717" d="M16.734,193.594c0,0-1.037,5.293-0.584,10.418c0,0,1.864-6.613,2.156-10.808
		C18.307,193.204,17.547,193.226,16.734,193.594z"/>
	<path fill="#3F1717" d="M22.096,193.035c0,0-1.065,4.448,0.368,10.317c0,0,1.165-6.092,1.154-10.144
		C23.618,193.209,22.822,192.853,22.096,193.035z"/>
	<path fill="#3F1717" d="M26.998,194.445c0,0-0.55,3.663,0.995,9.189c0,0,0.886-4.951,0.703-8.125
		C28.696,195.51,27.416,194.569,26.998,194.445z"/>
</g>
<g opacity="0.75">
	
		<radialGradient id="SVGID_5_" cx="-201.5928" cy="183.4922" r="9.0583" gradientTransform="matrix(0.9973 -0.0736 0.0736 0.9973 302.8045 0.2913)" gradientUnits="userSpaceOnUse">
		<stop  offset="0" style="stop-color:#473024"/>
		<stop  offset="1" style="stop-color:#2B1A10"/>
	</radialGradient>
	<path fill="url(#SVGID_5_)" d="M104.871,199.847c0.085,1.596,0.707,3.061,1.717,4.287c1.963,2.382,5.934,1.793,9.613,0.741
		c3.5-1,4.166,0,8.836-2.498c1.112-0.595,0.856-2.362,0.787-3.646c-0.25-4.7-5.143-8.26-10.932-7.949
		C109.107,191.091,104.621,195.146,104.871,199.847z"/>
	<path fill="#3F1717" d="M122.462,192.89c0,0,1.694,2.544,0.704,7.565c0,0-1.127-7.536-1.822-8.222L122.462,192.89z"/>
	<path fill="#3F1717" d="M118.856,191.239c0,0,1.138,4.847,0.898,9.583c0,0-1.944-6.037-2.361-9.895
		C117.394,190.928,118.099,190.924,118.856,191.239z"/>
	<path fill="#3F1717" d="M113.9,190.9c0,0,1.129,4.071,0.006,9.529c0,0-1.28-5.575-1.412-9.313
		C112.494,191.116,113.221,190.76,113.9,190.9z"/>
	<path fill="#3F1717" d="M109.424,192.374c0,0,0.634,3.358-0.606,8.505c0,0-0.983-4.533-0.926-7.469
		C107.892,193.41,109.041,192.504,109.424,192.374z"/>
</g>
<radialGradient id="SVGID_6_" cx="73.0098" cy="102.8716" r="21.089" gradientTransform="matrix(-0.9198 0.3924 0.3924 0.9198 135.3087 45.2952)" gradientUnits="userSpaceOnUse">
	<stop  offset="0" style="stop-color:#8B7359"/>
	<stop  offset="1" style="stop-color:#604141"/>
</radialGradient>
<path opacity="0.25" fill="url(#SVGID_6_)" d="M121.508,183.429c0,0-12.088-58.942-26.607-37.462c0,0,2.344,28.688,14.122,44.348
	C120.8,205.974,121.508,183.429,121.508,183.429z"/>
<radialGradient id="SVGID_7_" cx="-248.7656" cy="218.9346" r="21.0868" gradientTransform="matrix(0.9518 0.3068 -0.3068 0.9518 332.3173 38.9146)" gradientUnits="userSpaceOnUse">
	<stop  offset="0" style="stop-color:#8B7359"/>
	<stop  offset="1" style="stop-color:#604141"/>
</radialGradient>
<path opacity="0.25" fill="url(#SVGID_7_)" d="M16.804,186.959c0,0,6.646-59.799,23.068-39.73c0,0,0.289,28.775-10.01,45.445
	C19.564,209.348,16.804,186.959,16.804,186.959z"/>
<path fill="#3F1717" d="M88.3,120.245c0,0-9.948,29.694-3.138,68.542c6.813,38.838,6.893,1.681,6.893,1.681l0.502-12.143
	l1.326-51.853"/>
<radialGradient id="SVGID_8_" cx="20.1831" cy="169.8047" r="46.3168" gradientTransform="matrix(-0.9633 -0.2685 -0.2685 0.9633 160.0316 -17.1558)" gradientUnits="userSpaceOnUse">
	<stop  offset="0" style="stop-color:#50402C"/>
	<stop  offset="1" style="stop-color:#312921"/>
</radialGradient>
<path fill="url(#SVGID_8_)" d="M84.702,122.106c4.317,30.725-4.001,81.102-4.001,81.102l12.333,0.667l1.499-6.426
	c-0.945-18.912,14.111-66.68,14.111-66.68c4.197-48.061-4.881-73.466-13.316-34.292C93.664,104.207,84.702,122.106,84.702,122.106z"
	/>
<g>
	
		<radialGradient id="SVGID_9_" cx="66.8174" cy="172.5781" r="12.543" gradientTransform="matrix(-0.9982 0.0608 0.052 0.8543 141.7128 47.5625)" gradientUnits="userSpaceOnUse">
		<stop  offset="0" style="stop-color:#50402C"/>
		<stop  offset="1" style="stop-color:#312921"/>
	</radialGradient>
	<path fill="url(#SVGID_9_)" d="M70.129,201.967c0.131,2.143,0.32,5.106,2.36,5.736c4.878,1.505,7.294,0.146,12.378-0.161
		c4.53-0.277,7,1,10.783-0.208c2.506-0.801,2.607-4.477,2.45-7.069c-0.382-6.273-6.952-10.971-14.681-10.499
		C75.698,190.238,69.748,195.699,70.129,201.967z"/>
	<path fill="#3F1717" d="M93.547,192.499c0,0,2.289,3.384,1.019,10.104c0,0-1.581-10.055-2.517-10.963L93.547,192.499z"/>
	<path fill="#3F1717" d="M88.719,190.337c0,0,1.572,6.451,1.295,12.789c0,0-2.656-8.044-3.255-13.198
		C86.759,189.928,87.702,189.922,88.719,190.337z"/>
	<path fill="#3F1717" d="M82.092,189.936c0,0,1.555,5.417,0.111,12.721c0,0-1.771-7.436-1.979-12.422
		C80.225,190.234,81.186,189.754,82.092,189.936z"/>
	<path fill="#3F1717" d="M76.13,191.941c0,0,0.888,4.48-0.721,11.371c0,0-1.358-6.051-1.313-9.966
		C74.096,193.347,75.624,192.122,76.13,191.941z"/>
</g>
<path fill="#3F1717" d="M43.054,118.021c0,0,13.169,28.41,10.698,67.768c-2.485,39.356-6.671,2.432-6.671,2.432l-1.835-12.011
	l-7.052-51.384"/>
<radialGradient id="SVGID_10_" cx="201.4023" cy="67.4551" r="47.5643" gradientTransform="matrix(0.9366 -0.3503 0.3503 0.9366 -172.1659 150.9706)" gradientUnits="userSpaceOnUse">
	<stop  offset="0" style="stop-color:#50402C"/>
	<stop  offset="1" style="stop-color:#312921"/>
</radialGradient>
<path fill="url(#SVGID_10_)" d="M48.193,122.185c-1.663,30.98,11.174,84.19,11.174,84.19l-11.833,0.167l-2.655-8.445
	c-0.688-18.928-19.795-65.218-19.795-65.218c-8.315-47.522-1.456-73.617,10.318-35.313
	C37.723,105.124,48.193,122.185,48.193,122.185z"/>
<g>
	
		<radialGradient id="SVGID_11_" cx="225.1992" cy="170.4785" r="12.4012" gradientTransform="matrix(0.9979 -0.0642 0.055 0.8541 -180.7304 68.5202)" gradientUnits="userSpaceOnUse">
		<stop  offset="0" style="stop-color:#50402C"/>
		<stop  offset="1" style="stop-color:#312921"/>
	</radialGradient>
	<path fill="url(#SVGID_11_)" d="M67.52,201.127c0.143,2.223,0.309,5.371-1.758,6.187c-5.228,2.062-7.415-0.423-12.395-0.105
		c-5.701,0.367-6.833,1.834-12.309,0.257c-1.551-0.446-1.397-2.896-1.504-4.539c-0.407-6.27,5.527-11.751,13.255-12.253
		C60.53,190.18,67.115,194.858,67.52,201.127z"/>
	<path fill="#3F1717" d="M43.104,194.656c0,0-1.851,3.641,0.249,10.146c0,0,0.317-10.175,1.129-11.187L43.104,194.656z"/>
	<path fill="#3F1717" d="M47.621,191.902c0,0-0.747,6.604,0.314,12.858c0,0,1.635-8.319,1.585-13.498
		C49.521,191.263,48.579,191.371,47.621,191.902z"/>
	<path fill="#3F1717" d="M54.148,190.682c0,0-0.868,5.573,1.475,12.638c0,0,0.833-7.6,0.42-12.568
		C56.043,190.751,55.023,190.387,54.148,190.682z"/>
	<path fill="#3F1717" d="M60.315,191.93c0,0-0.32,4.555,2.133,11.187c0,0,0.595-6.173,0.063-10.049
		C62.512,193.067,60.84,192.038,60.315,191.93z"/>
</g>
<path fill="#3F1717" d="M22.261,75.242c0.594,19.304,19.889,34.366,43.095,33.644c23.205-0.718,41.525-16.953,40.928-36.254
	c-0.6-19.304-19.897-34.367-43.1-33.646C39.979,39.709,21.655,55.938,22.261,75.242z"/>
<path fill="#EAB148" d="M65.164,108.881c0.24,1.525,1.102,2.659,1.928,2.53c0.829-0.128,1.31-1.469,1.072-2.994
	c-0.234-1.527-1.099-2.659-1.928-2.532C65.41,106.016,64.932,107.356,65.164,108.881z"/>
<path fill="#3F1717" d="M61.039,117.935c-0.08,4.736,2.059,8.063,4.775,7.431c2.714-0.634,4.98-4.98,5.057-9.718
	c0.077-4.741-2.06-8.069-4.774-7.436C63.381,108.838,61.117,113.193,61.039,117.935z"/>
<path fill="#EAB148" d="M61.645,117.793c-0.07,4.15,1.806,7.062,4.186,6.512c2.381-0.552,4.366-4.367,4.434-8.516
	c0.069-4.149-1.804-7.074-4.185-6.516C63.699,109.824,61.715,113.645,61.645,117.793z"/>
<linearGradient id="SVGID_12_" gradientUnits="userSpaceOnUse" x1="83.2539" y1="99.4097" x2="89.2373" y2="99.4097" gradientTransform="matrix(-0.5922 0.1379 -0.0414 2.5099 122.8488 -146.4713)">
	<stop  offset="0" style="stop-color:#F9EF8A"/>
	<stop  offset="1" style="stop-color:#FFE867"/>
</linearGradient>
<path opacity="0.65" fill="url(#SVGID_12_)" d="M65.886,115.346c0.036-2.159,0.858-4.095,1.837-4.315
	c0.978-0.229,1.744,1.332,1.707,3.49c-0.036,2.158-0.857,4.087-1.837,4.321C66.614,119.069,65.85,117.504,65.886,115.346z"/>
<g>
	
		<linearGradient id="SVGID_13_" gradientUnits="userSpaceOnUse" x1="84.5117" y1="93.5605" x2="84.5117" y2="7.0684" gradientTransform="matrix(-0.9995 0.0311 0.0311 0.9995 145.5251 8.7059)">
		<stop  offset="0" style="stop-color:#34332E"/>
		<stop  offset="1" style="stop-color:#6B5944"/>
	</linearGradient>
	<path fill="url(#SVGID_13_)" d="M114.257,63.894c0,0-8.22-48.836-52.852-45.438C16.774,21.85,8.847,63.316,11.908,75.452
		c3.056,12.136,30.108,30.732,52.017,29.38C85.832,103.484,109.404,91.022,114.257,63.894z"/>
	
		<radialGradient id="SVGID_14_" cx="84.5117" cy="43.7061" r="43.2869" gradientTransform="matrix(-0.9995 0.0311 0.0311 0.9995 145.5251 8.7059)" gradientUnits="userSpaceOnUse">
		<stop  offset="0" style="stop-color:#50402C"/>
		<stop  offset="1" style="stop-color:#312921"/>
	</radialGradient>
	<path fill="url(#SVGID_14_)" d="M111.668,56.758c0,0-7.672-41.15-50.259-38.132C18.817,21.645,11.111,56.63,13.989,66.852
		c2.872,10.224,28.611,25.808,49.519,24.593C84.416,90.229,106.945,79.645,111.668,56.758z"/>
</g>
<g>
	<path fill="#715F51" d="M95.244,45.114c0,0-3.064-1.579-10.129-2.364c-7.06-0.787-10.611-1.85-13.572,5.279
		c-2.964,7.129-2.588,13.819-2.588,13.819s4.965-1.998,13.372-1.085C90.732,61.677,95.244,45.114,95.244,45.114z"/>
	<path fill="#2EA836" d="M93.839,46.968c0,0-2.522-1.568-8.532-2.731c-6.012-1.167-8.988-2.324-12.025,3.594
		c-3.035,5.917-3.24,12.668-3.24,12.668s4.467-2.351,11.623-0.987C88.818,60.877,93.839,46.968,93.839,46.968z"/>
	
		<linearGradient id="SVGID_15_" gradientUnits="userSpaceOnUse" x1="67.1514" y1="45.7422" x2="67.1514" y2="32.6318" gradientTransform="matrix(-0.9995 0.0311 0.0311 0.9995 145.5251 8.7059)">
		<stop  offset="0" style="stop-color:#4B2B1E"/>
		<stop  offset="1" style="stop-color:#83533F"/>
	</linearGradient>
	<path fill="url(#SVGID_15_)" d="M78.973,43.422c0,0,4.673,6.005,3.988,12.992c0,0-5.723-7.772-6.76-11.991L78.973,43.422z"/>
	
		<linearGradient id="SVGID_16_" gradientUnits="userSpaceOnUse" x1="61.4434" y1="43.0132" x2="61.4434" y2="34.6431" gradientTransform="matrix(-0.9995 0.0311 0.0311 0.9995 145.5251 8.7059)">
		<stop  offset="0" style="stop-color:#BBD472"/>
		<stop  offset="1" style="stop-color:#6EB52C"/>
	</linearGradient>
	<path opacity="0.65" fill="url(#SVGID_16_)" d="M79.802,49.597c0.071,2.311,2.603,4.106,5.651,4.011
		c3.047-0.095,5.461-2.044,5.386-4.355c-0.071-2.308-2.6-4.103-5.646-4.011C82.145,45.34,79.729,47.289,79.802,49.597z"/>
	<path fill="#21221C" d="M84.623,44.661c-6.008-1.163-8.275-1.79-11.309,4.128c-2.282,4.446-2.928,8.806-3.109,10.703
		c-0.058,0.018-0.098,0.026-0.098,0.026s0.139-5.771,3.174-11.688c3.037-5.917,6.014-4.761,12.025-3.594
		c6.01,1.163,8.532,2.731,8.532,2.731l-0.168,0.042C89.859,45.699,89.402,45.587,84.623,44.661z"/>
</g>
<g>
	<path fill="#715F51" d="M24.799,57.935c0,0,2.216-2.64,8.428-6.091c6.211-3.451,9.082-5.801,14.563-0.366
		c5.484,5.434,7.721,11.75,7.721,11.75s-5.354,0.075-12.756,4.158C35.354,71.472,24.799,57.935,24.799,57.935z"/>
	<path fill="#2EA836" d="M26.811,59.103c0,0,1.717-2.422,6.814-5.814c5.099-3.392,7.393-5.609,12.478-1.324
		c5.085,4.289,7.878,10.439,7.878,10.439s-5.025-0.445-11.1,3.573C36.808,69.994,26.811,59.103,26.811,59.103z"/>
	
		<linearGradient id="SVGID_17_" gradientUnits="userSpaceOnUse" x1="291.6162" y1="96.3311" x2="291.6162" y2="83.2197" gradientTransform="matrix(0.9341 -0.357 0.357 0.9341 -263.3679 76.6323)">
		<stop  offset="0" style="stop-color:#4B2B1E"/>
		<stop  offset="1" style="stop-color:#83533F"/>
	</linearGradient>
	<path fill="url(#SVGID_17_)" d="M39.158,50.095c0,0-1.996,7.343,1.337,13.526c0,0,2.278-9.38,1.602-13.671L39.158,50.095z"/>
	<linearGradient id="SVGID_18_" gradientUnits="userSpaceOnUse" x1="40.0098" y1="57.292" x2="48.8755" y2="57.292">
		<stop  offset="0" style="stop-color:#BBD472"/>
		<stop  offset="1" style="stop-color:#6EB52C"/>
	</linearGradient>
	<path opacity="0.65" fill="url(#SVGID_18_)" d="M48.502,55.74c0.983,2.565-0.042,5.342-2.282,6.199
		c-2.245,0.858-4.854-0.527-5.839-3.095c-0.978-2.568,0.042-5.342,2.287-6.201C44.908,51.787,47.519,53.173,48.502,55.74z"/>
	<path fill="#21221C" d="M34.42,53.419c5.092-3.393,6.942-4.844,12.027-0.559c3.818,3.222,6.099,6.999,7,8.674
		c0.06-0.008,0.1-0.011,0.1-0.011s-2.359-5.271-7.444-9.56c-5.085-4.286-7.379-2.068-12.478,1.324
		c-5.098,3.393-6.814,5.814-6.814,5.814l0.17-0.026C29.993,56.397,30.364,56.118,34.42,53.419z"/>
</g>
<g>
	
		<linearGradient id="SVGID_19_" gradientUnits="userSpaceOnUse" x1="55.2002" y1="26.8916" x2="68.3064" y2="-10.8734" gradientTransform="matrix(-1 0.0036 0.0036 1 146.6422 13.2492)">
		<stop  offset="0" style="stop-color:#423228"/>
		<stop  offset="1" style="stop-color:#524335"/>
	</linearGradient>
	<path fill="url(#SVGID_19_)" d="M102.227,36.587c0,0-9.204-26.848-17.766-36.13l-12.26,19.005
		C72.201,19.462,86.043,33.994,102.227,36.587z"/>
	
		<linearGradient id="SVGID_20_" gradientUnits="userSpaceOnUse" x1="52.6963" y1="1.4561" x2="62.1608" y2="6.9204" gradientTransform="matrix(-1 0.0036 0.0036 1 146.6422 13.2492)">
		<stop  offset="0" style="stop-color:#F2926A"/>
		<stop  offset="1" style="stop-color:#EF7E5F"/>
	</linearGradient>
	<path fill="url(#SVGID_20_)" d="M84.595-0.069c0,0-0.298,12.932,0.323,16.836c0.721,4.504-0.771,6.501,6.672,11.512
		c7.444,5.012,6.91,4.35,6.91,4.35s-0.303-10.341-3.639-16.161C91.524,10.648,85.927,1.519,84.595-0.069z"/>
	<path fill="#F7B08F" d="M85.549,16.828c0,0,1.082-2.703,3.825-4.372c0,0-3.513,4.58-3.717,5.667
		C85.457,19.215,85.549,16.828,85.549,16.828z"/>
	<path fill="#F7B08F" d="M85.768,21.586c0,0,1.041-2.885,5.508-4.568c0,0-3.506,2.525-4.996,5.612L85.768,21.586z"/>
	<path fill="#61604E" d="M84.415,0.088c0,0,0.093,11.729,0.925,15.596c1.006,4.666-1.086,6.351,6.191,11.752
		c5.52,4.101,6.838,4.695,6.965,5.05c0.004,0.092,0.004,0.144,0.004,0.144s0.534,0.662-6.91-4.35
		c-7.443-5.01-5.951-7.008-6.672-11.512C84.297,12.863,84.415,0.088,84.415,0.088z"/>
</g>
<g>
	
		<linearGradient id="SVGID_21_" gradientUnits="userSpaceOnUse" x1="257.2461" y1="76.6763" x2="270.352" y2="38.9122" gradientTransform="matrix(0.9541 -0.2996 0.2996 0.9541 -241.2014 55.5984)">
		<stop  offset="0" style="stop-color:#423228"/>
		<stop  offset="1" style="stop-color:#524335"/>
	</linearGradient>
	<path fill="url(#SVGID_21_)" d="M15.887,51.347c0,0,0.634-28.375,5.981-39.814l17.442,14.392
		C39.311,25.925,30.526,43.97,15.887,51.347z"/>
	
		<linearGradient id="SVGID_22_" gradientUnits="userSpaceOnUse" x1="254.7422" y1="51.2393" x2="264.2067" y2="56.7036" gradientTransform="matrix(0.9541 -0.2996 0.2996 0.9541 -241.2014 55.5984)">
		<stop  offset="0" style="stop-color:#F2926A"/>
		<stop  offset="1" style="stop-color:#EF7E5F"/>
	</linearGradient>
	<path fill="url(#SVGID_22_)" d="M21.587,11.07c0,0,4.199,12.231,4.785,16.144c0.68,4.507,2.706,5.959-2.866,12.99
		c-5.573,7.031-5.267,6.241-5.267,6.241s-2.843-9.944-1.432-16.505C18.224,23.382,20.792,12.987,21.587,11.07z"/>
	<path fill="#F7B08F" d="M25.793,27.461c0,0-1.85-2.247-4.973-3.006c0,0,4.734,3.295,5.265,4.273
		C26.604,29.705,25.793,27.461,25.793,27.461z"/>
	<path fill="#F7B08F" d="M27.024,32.063c0,0-1.862-2.436-6.628-2.689c0,0,4.106,1.349,6.457,3.837L27.024,32.063z"/>
	<path fill="#61604E" d="M21.802,11.163c0,0,3.468,11.206,3.845,15.142c0.451,4.754,2.958,5.725-2.34,13.078
		c-4.011,5.579-5.093,6.545-5.102,6.927c0.017,0.085,0.034,0.135,0.034,0.135s-0.307,0.791,5.267-6.241
		c5.572-7.031,3.546-8.482,2.866-12.99C25.786,23.301,21.802,11.163,21.802,11.163z"/>
</g>
<g>
	
		<radialGradient id="SVGID_23_" cx="87.1289" cy="20.2041" r="13.4631" gradientTransform="matrix(-0.9995 0.0311 0.0311 0.9995 145.5251 8.7059)" gradientUnits="userSpaceOnUse">
		<stop  offset="0" style="stop-color:#79654F"/>
		<stop  offset="1" style="stop-color:#665643"/>
	</radialGradient>
	<path fill="url(#SVGID_23_)" d="M73.244,41.478c0,0-18.579-2.669-27.625,3.609c0,0-0.421-21.608,1.008-23.774
		c1.43-2.169,18.029-2.936,18.029-2.936S72.395,30.134,73.244,41.478z"/>
	
		<linearGradient id="SVGID_24_" gradientUnits="userSpaceOnUse" x1="87.1289" y1="29.6318" x2="87.1289" y2="55.7393" gradientTransform="matrix(-0.9995 0.0311 0.0311 0.9995 145.5251 8.7059)">
		<stop  offset="0" style="stop-color:#534536"/>
		<stop  offset="1" style="stop-color:#716552"/>
	</linearGradient>
	<path fill="url(#SVGID_24_)" d="M73.244,41.478c0,0-17.575-2.7-27.625,3.609c0,0,7.907,1.252,12.687,18.224
		c0,0-3.945,1.747-5.25,4.038c0,0,4.705-5.395,19.028-2.842c0,0-0.822-2.35-6.203-2.684C65.881,61.823,64.279,46.503,73.244,41.478z
		"/>
</g>
<g>
	
		<linearGradient id="SVGID_25_" gradientUnits="userSpaceOnUse" x1="84.4277" y1="65.4922" x2="84.4277" y2="51.8911" gradientTransform="matrix(-0.9995 0.0311 0.0311 0.9995 145.5251 8.7059)">
		<stop  offset="0" style="stop-color:#9D7D65"/>
		<stop  offset="1" style="stop-color:#9D7B60"/>
	</linearGradient>
	<path fill="url(#SVGID_25_)" d="M62.572,63.318c0,0-12.942,1.339-7.552,6.793c5.39,5.454,10.693,12.383,16.152-1.44
		C71.173,68.67,76.044,61.83,62.572,63.318z"/>
	<path fill="#4A4742" d="M62.873,68.288l0.221,4.667c0,0-4.069,0.605-6.955-1.671c0,0,1.66,3.213,7.713,2.997
		c6.06-0.22,7.301-5.574,7.301-5.574s-1.674,3.556-6.729,4.208l-0.668-5.043L62.873,68.288z"/>
	
		<linearGradient id="SVGID_26_" gradientUnits="userSpaceOnUse" x1="84.1699" y1="57.6812" x2="84.1699" y2="54.4253" gradientTransform="matrix(-0.9995 0.0311 0.0311 0.9995 145.5251 8.7059)">
		<stop  offset="0" style="stop-color:#752D29"/>
		<stop  offset="1" style="stop-color:#A23F39"/>
	</linearGradient>
	<path fill="url(#SVGID_26_)" d="M64.93,68.031c0,0,4.168-3.231-1.863-2.146c-6.03,1.09-1.56,2.76-1.56,2.76
		S63.188,69.731,64.93,68.031z"/>
</g>
<linearGradient id="SVGID_27_" gradientUnits="userSpaceOnUse" x1="115.3564" y1="60.2339" x2="95.499" y2="60.2339" gradientTransform="matrix(-0.9995 0.0311 0.0311 0.9995 145.5251 8.7059)">
	<stop  offset="0" style="stop-color:#7B6752"/>
	<stop  offset="1" style="stop-color:#97866D"/>
</linearGradient>
<path fill="url(#SVGID_27_)" d="M51.858,69.01c0,0-15.192,1.721-19.67,6.357C32.188,75.367,38.454,71.925,51.858,69.01z"/>
<linearGradient id="SVGID_28_" gradientUnits="userSpaceOnUse" x1="157.1973" y1="48.8662" x2="157.1973" y2="48.8662" gradientTransform="matrix(-0.9995 0.0311 0.0311 0.9995 145.5251 8.7059)">
	<stop  offset="0" style="stop-color:#E5C8A2"/>
	<stop  offset="1" style="stop-color:#AD8C69"/>
</linearGradient>
<path fill="url(#SVGID_28_)" d="M-10.073,62.436"/>
<linearGradient id="SVGID_29_" gradientUnits="userSpaceOnUse" x1="107.3701" y1="64.106" x2="93.7471" y2="64.106" gradientTransform="matrix(-0.9995 0.0311 0.0311 0.9995 145.5251 8.7059)">
	<stop  offset="0" style="stop-color:#7B6752"/>
	<stop  offset="1" style="stop-color:#97866D"/>
</linearGradient>
<path fill="url(#SVGID_29_)" d="M53.647,70.202c0,0-12.267,7.506-13.273,11.411C40.374,81.613,47.29,74.898,53.647,70.202z"/>
<linearGradient id="SVGID_30_" gradientUnits="userSpaceOnUse" x1="74.5166" y1="54.2769" x2="51.9097" y2="54.2769" gradientTransform="matrix(-0.9995 0.0311 0.0311 0.9995 145.5251 8.7059)">
	<stop  offset="0" style="stop-color:#7B6752"/>
	<stop  offset="1" style="stop-color:#97866D"/>
</linearGradient>
<path fill="url(#SVGID_30_)" d="M95.348,65.158c0,0-16.429-1.866-22.606,0.328C72.741,65.486,89.968,64.95,95.348,65.158z"/>
<linearGradient id="SVGID_31_" gradientUnits="userSpaceOnUse" x1="73.6416" y1="61.6089" x2="56.6563" y2="61.6089" gradientTransform="matrix(-0.9995 0.0311 0.0311 0.9995 145.5251 8.7059)">
	<stop  offset="0" style="stop-color:#7B6752"/>
	<stop  offset="1" style="stop-color:#97866D"/>
</linearGradient>
<path fill="url(#SVGID_31_)" d="M73.732,69.204c0,0,8.978,0.931,17.186,6.212C90.918,75.416,76.952,70.316,73.732,69.204z"/>
<linearGradient id="SVGID_32_" gradientUnits="userSpaceOnUse" x1="70.2676" y1="56.6133" x2="70.2676" y2="56.6133" gradientTransform="matrix(-0.9995 0.0311 0.0311 0.9995 145.5251 8.7059)">
	<stop  offset="0" style="stop-color:#E5C8A2"/>
	<stop  offset="1" style="stop-color:#AD8C69"/>
</linearGradient>
<path fill="url(#SVGID_32_)" d="M77.054,67.476"/>
</svg>
