<?xml version="1.0" encoding="utf-8"?>
<!-- Generator: Adobe Illustrator 15.0.0, SVG Export Plug-In . SVG Version: 6.00 Build 0)  -->
<!DOCTYPE svg PUBLIC "-//W3C//DTD SVG 1.1//EN" "http://www.w3.org/Graphics/SVG/1.1/DTD/svg11.dtd">
<svg version="1.1" id="Layer_1" xmlns="http://www.w3.org/2000/svg" xmlns:xlink="http://www.w3.org/1999/xlink" x="0px" y="0px"
	 width="509px" height="337.386px" viewBox="0 0 509 337.386" style="enable-background:new 0 0 509 337.386;" xml:space="preserve"
	>
<path style="fill-rule:evenodd;clip-rule:evenodd;fill:none;" d="M-497-293.307c464.62,0,929.38,0,1394,0c0,307.969,0,616.031,0,924
	c-14.332,0-28.668,0-43,0c0-288.971,0-578.029,0-867c-433.29,0-866.71,0-1300,0c0,288.971,0,578.029,0,867c-16.999,0-34.002,0-51,0
	C-497,322.724-497,14.662-497-293.307z"/>
<path style="fill-rule:evenodd;clip-rule:evenodd;fill:#7F0016;" d="M0,0c169.65,0,339.35,0,509,0c0,112.451,0,224.935,0,337.386
	c-5.232,0-10.468,0-15.701,0c0-105.514,0-211.06,0-316.573c-158.209,0-316.467,0-474.677,0c0,105.514,0,211.06,0,316.573
	c-6.207,0-12.416,0-18.622,0C0,224.935,0,112.451,0,0z"/>
</svg>
