<?xml version="1.0" encoding="utf-8"?>
<!-- Generator: Adobe Illustrator 16.0.0, SVG Export Plug-In . SVG Version: 6.00 Build 0)  -->
<!DOCTYPE svg PUBLIC "-//W3C//DTD SVG 1.1//EN" "http://www.w3.org/Graphics/SVG/1.1/DTD/svg11.dtd">
<svg version="1.1" id="Ebene_1" xmlns="http://www.w3.org/2000/svg" xmlns:xlink="http://www.w3.org/1999/xlink" x="0px" y="0px"
	 width="399.001px" height="157px" viewBox="0 0 399.001 157" enable-background="new 0 0 399.001 157" xml:space="preserve">
<g>
	
		<linearGradient id="SVGID_1_" gradientUnits="userSpaceOnUse" x1="352.1572" y1="86.2788" x2="352.1572" y2="128.4321" gradientTransform="matrix(0.8981 0.1649 -0.1806 0.9835 8.4546 -41.8727)">
		<stop  offset="0" style="stop-color:#56534E"/>
		<stop  offset="1" style="stop-color:#8B735A"/>
	</linearGradient>
	<path fill="url(#SVGID_1_)" d="M317.499,123.922c-1.111,6.046-2.328,16.375-5.448,19.699c-0.737,0.783-2.723-0.175-3.542-0.301
		c-2.255-0.348-4.585-0.575-6.881-0.996c-1.907-0.351-5.664-0.744-7.973-1.256c-1.052-0.235-1.669-0.411-2.156-1.366
		c-2.171-4.298,0.609-13.563,1.828-20.22c2.094-11.388,9.199-19.627,15.874-18.4C315.874,102.309,319.59,112.533,317.499,123.922z"
		/>
	
		<radialGradient id="SVGID_2_" cx="353.001" cy="145.772" r="17.8968" gradientTransform="matrix(0.8757 0.1002 -0.1039 0.9074 10.3421 -37.3725)" gradientUnits="userSpaceOnUse">
		<stop  offset="0" style="stop-color:#BB956B"/>
		<stop  offset="1" style="stop-color:#816F60"/>
	</radialGradient>
	<path fill="url(#SVGID_2_)" d="M322.355,135.882c-0.382,3.354-2.193,8.532-5.476,8.566c-5.529,0.058-8.736-2.034-15.107-2.763
		c-7.547-0.864-8.494-0.23-14.461-2.666c-2.086-0.852-2.128-5.039-1.86-7.365c1.022-8.949,10.116-15.26,20.309-14.092
		C315.949,118.728,323.381,126.932,322.355,135.882z"/>
	
		<radialGradient id="SVGID_3_" cx="315.6436" cy="98.772" r="16.3806" gradientTransform="matrix(0.731 0.1342 -0.1868 1.0178 92.6481 -18.7775)" gradientUnits="userSpaceOnUse">
		<stop  offset="0" style="stop-color:#BB956B"/>
		<stop  offset="1" style="stop-color:#816F60"/>
	</radialGradient>
	<path fill="url(#SVGID_3_)" d="M315.548,126.074c-1.865,10.151-8.126,17.508-13.983,16.432c-5.86-1.077-9.096-10.178-7.23-20.328
		c1.862-10.151,8.121-17.508,13.981-16.432C314.175,106.821,317.413,115.92,315.548,126.074z"/>
	<g opacity="0.75">
		
			<radialGradient id="SVGID_4_" cx="331.4404" cy="144.7427" r="2.6898" gradientTransform="matrix(0.9935 0.1138 -0.1138 0.9935 2.6574 -39.0648)" gradientUnits="userSpaceOnUse">
			<stop  offset="0" style="stop-color:#704E3E"/>
			<stop  offset="1" style="stop-color:#634438"/>
		</radialGradient>
		<path fill="url(#SVGID_4_)" d="M312.256,142.515c-0.071,0.526-0.088,1.178,0.341,1.493c0.688,0.508,1.83,0.228,2.925,0.377
			c1.396,0.188,2.051,0.169,2.778-0.237c0.239-0.135,0.229-0.501,0.267-0.78c0.19-1.415-1.067-2.752-2.808-2.986
			C314.016,140.146,312.449,141.1,312.256,142.515z"/>
		<path fill="#3D1717" d="M317.894,141.436c0,0,0.362,0.856-0.219,2.296c0,0,0.091-2.31-0.078-2.553L317.894,141.436z"/>
		<path fill="#3D1717" d="M316.914,140.741c0,0,0.066,1.508-0.276,2.908c0,0-0.237-1.909-0.143-3.082
			C316.495,140.567,316.703,140.605,316.914,140.741z"/>
		<path fill="#3D1717" d="M315.453,140.36c0,0,0.107,1.276-0.534,2.841c0,0-0.068-1.735,0.105-2.856
			C315.024,140.344,315.26,140.281,315.453,140.36z"/>
		<path fill="#3D1717" d="M314.038,140.545c0,0-0.003,1.037-0.663,2.501c0,0-0.037-1.407,0.146-2.278
			C313.521,140.768,313.916,140.562,314.038,140.545z"/>
	</g>
	<g opacity="0.75">
		
			<radialGradient id="SVGID_5_" cx="-183.0596" cy="115.5718" r="2.5367" gradientTransform="matrix(-0.975 -0.2223 -0.2223 0.975 136.6642 -15.5205)" gradientUnits="userSpaceOnUse">
			<stop  offset="0" style="stop-color:#704E3E"/>
			<stop  offset="1" style="stop-color:#634438"/>
		</radialGradient>
		<path fill="url(#SVGID_5_)" d="M292.256,138.77c-0.091,0.438-0.326,0.818-0.656,1.116c-0.644,0.575-1.719,0.247-2.692-0.199
			c-0.926-0.425-1.153-0.175-2.34-1.062c-0.284-0.213-0.14-0.691-0.066-1.042c0.267-1.292,1.772-2.071,3.36-1.742
			C291.45,136.169,292.522,137.48,292.256,138.77z"/>
		<path fill="#3D1717" d="M287.678,136.107c0,0-0.575,0.632-0.511,2.063c0,0,0.626-2.039,0.847-2.198L287.678,136.107z"/>
		<path fill="#3D1717" d="M288.745,135.801c0,0-0.519,1.294-0.65,2.614c0,0,0.79-1.589,1.069-2.639
			C289.164,135.777,288.968,135.745,288.745,135.801z"/>
		<path fill="#3D1717" d="M290.131,135.917c0,0-0.482,1.079-0.401,2.636c0,0,0.587-1.488,0.783-2.519
			C290.513,136.034,290.327,135.904,290.131,135.917z"/>
		<path fill="#3D1717" d="M291.309,136.511c0,0-0.316,0.903-0.188,2.379c0,0,0.462-1.213,0.57-2.028
			C291.69,136.862,291.408,136.562,291.309,136.511z"/>
	</g>
	
		<radialGradient id="SVGID_6_" cx="335.8389" cy="16.4526" r="5.9047" gradientTransform="matrix(0.8506 0.5259 -0.5259 0.8506 15.5613 -60.6491)" gradientUnits="userSpaceOnUse">
		<stop  offset="0" style="stop-color:#8B735A"/>
		<stop  offset="1" style="stop-color:#604241"/>
	</radialGradient>
	<path opacity="0.25" fill="url(#SVGID_6_)" d="M288.339,133.527c0,0,5.821-15.808,8.939-9.252c0,0-1.855,7.843-5.771,11.683
		C287.588,139.798,288.339,133.527,288.339,133.527z"/>
	
		<radialGradient id="SVGID_7_" cx="-168.2524" cy="201.5923" r="5.9036" gradientTransform="matrix(-0.987 0.1606 0.1606 0.987 116.1931 -37.9674)" gradientUnits="userSpaceOnUse">
		<stop  offset="0" style="stop-color:#8B735A"/>
		<stop  offset="1" style="stop-color:#604241"/>
	</radialGradient>
	<path opacity="0.25" fill="url(#SVGID_7_)" d="M317.174,138.9c0,0,0.67-16.83-4.72-11.965c0,0-1.287,7.953,0.864,12.999
		C315.47,144.983,317.174,138.9,317.174,138.9z"/>
	<path fill="#3D1717" d="M300.184,117.433c0,0,1.508,8.636-2.007,19.104c-3.521,10.466-1.98,0.177-1.98,0.177l0.372-3.382
		l1.809-14.41"/>
	
		<radialGradient id="SVGID_8_" cx="276.333" cy="183.4302" r="12.9669" gradientTransform="matrix(0.9927 -0.121 0.121 0.9927 0.956 -25.7503)" gradientUnits="userSpaceOnUse">
		<stop  offset="0" style="stop-color:#BB956B"/>
		<stop  offset="1" style="stop-color:#816F60"/>
	</radialGradient>
	<path fill="url(#SVGID_8_)" d="M301.102,118.099c-2.484,8.322-2.296,22.617-2.296,22.617l-3.441-0.333l-0.147-1.842
		c1.056-5.195-1.105-19.05-1.105-19.05c0.854-13.479,4.435-20.13,5.125-8.933C299.371,112.768,301.102,118.099,301.102,118.099z"/>
	<g>
		
			<radialGradient id="SVGID_9_" cx="321.8701" cy="101.5708" r="3.5119" gradientTransform="matrix(0.9778 0.2098 -0.1795 0.8368 1.5809 -13.0969)" gradientUnits="userSpaceOnUse">
			<stop  offset="0" style="stop-color:#BB956B"/>
			<stop  offset="1" style="stop-color:#816F60"/>
		</radialGradient>
		<path fill="url(#SVGID_9_)" d="M301.784,140.817c-0.127,0.587-0.306,1.399-0.896,1.488c-1.415,0.213-2.024-0.268-3.42-0.564
			c-1.243-0.267-1.979-0.016-2.976-0.511c-0.659-0.326-0.534-1.349-0.382-2.06c0.369-1.72,2.386-2.745,4.506-2.29
			C300.734,137.336,302.151,139.097,301.784,140.817z"/>
		<path fill="#3D1717" d="M295.697,137.212c0,0-0.773,0.841-0.705,2.754c0,0,0.859-2.716,1.157-2.929L295.697,137.212z"/>
		<path fill="#3D1717" d="M297.127,136.817c0,0-0.708,1.72-0.896,3.485c0,0,1.072-2.114,1.454-3.517
			C297.685,136.786,297.423,136.744,297.127,136.817z"/>
		<path fill="#3D1717" d="M298.977,136.984c0,0-0.655,1.434-0.565,3.517c0,0,0.804-1.984,1.067-3.355
			C299.479,137.145,299.234,136.971,298.977,136.984z"/>
		<path fill="#3D1717" d="M300.541,137.789c0,0-0.434,1.204-0.276,3.178c0,0,0.629-1.617,0.783-2.702
			C301.048,138.264,300.676,137.861,300.541,137.789z"/>
	</g>
	<path fill="#3D1717" d="M312.802,118.716c0,0-4.837,7.312-5.806,18.309c-0.965,10.998,1.745,0.954,1.745,0.954l1.011-3.247
		l4.109-13.928"/>
	
		<radialGradient id="SVGID_10_" cx="271.791" cy="20.3989" r="13.3164" gradientTransform="matrix(-0.8735 -0.4868 -0.4868 0.8735 559.8786 240.4075)" gradientUnits="userSpaceOnUse">
		<stop  offset="0" style="stop-color:#BB956B"/>
		<stop  offset="1" style="stop-color:#816F60"/>
	</radialGradient>
	<path fill="url(#SVGID_10_)" d="M311.203,119.654c-0.839,8.646-6.626,22.835-6.626,22.835l3.268,0.543l1.09-2.228
		c0.986-5.21,8.217-17.22,8.217-17.22c4.299-12.807,3.493-20.317-1.373-10.208C314.818,115.37,311.203,119.654,311.203,119.654z"/>
	<g>
		
			<radialGradient id="SVGID_11_" cx="287.9482" cy="100.1841" r="3.4717" gradientTransform="matrix(-0.977 -0.2131 -0.1825 0.8362 606.1199 118.4777)" gradientUnits="userSpaceOnUse">
			<stop  offset="0" style="stop-color:#BB956B"/>
			<stop  offset="1" style="stop-color:#816F60"/>
		</radialGradient>
		<path fill="url(#SVGID_11_)" d="M302.541,140.694c-0.132,0.608-0.311,1.474,0.225,1.786c1.361,0.789,2.071,0.194,3.438,0.49
			c1.562,0.342,1.813,0.796,3.395,0.588c0.448-0.058,0.509-0.741,0.609-1.192c0.375-1.718-1.038-3.485-3.157-3.948
			C304.935,137.957,302.915,138.976,302.541,140.694z"/>
		<path fill="#3D1717" d="M309.571,139.927c0,0,0.359,1.085-0.497,2.799c0,0,0.34-2.83,0.159-3.146L309.571,139.927z"/>
		<path fill="#3D1717" d="M308.435,138.976c0,0-0.07,1.859-0.626,3.546c0,0-0.103-2.372,0.127-3.803
			C307.936,138.719,308.192,138.788,308.435,138.976z"/>
		<path fill="#3D1717" d="M306.68,138.364c0,0,0.005,1.579-0.938,3.436c0,0,0.089-2.138,0.411-3.496
			C306.153,138.303,306.45,138.244,306.68,138.364z"/>
		<path fill="#3D1717" d="M304.92,138.45c0,0-0.103,1.275-1.06,3.008c0,0,0.096-1.735,0.403-2.785
			C304.264,138.672,304.771,138.458,304.92,138.45z"/>
	</g>
	
		<ellipse transform="matrix(0.9836 0.1805 -0.1805 0.9836 24.1431 -54.0112)" fill="#3D1717" cx="308.779" cy="105.623" rx="11.768" ry="9.79"/>
	
		<ellipse transform="matrix(0.9543 0.2989 -0.2989 0.9543 48.4381 -86.4051)" fill="#E9B148" cx="306.659" cy="115.131" rx="0.425" ry="0.782"/>
	
		<ellipse transform="matrix(0.9835 0.1807 -0.1807 0.9835 25.9897 -53.4451)" fill="#3D1717" cx="306.394" cy="115.954" rx="2.324" ry="0.957"/>
	<path fill="#E9B148" d="M308.398,116.321c-0.083,0.457-1.048,0.66-2.156,0.457c-1.106-0.203-1.934-0.737-1.854-1.192
		c0.086-0.455,1.051-0.661,2.157-0.458C307.654,115.331,308.481,115.866,308.398,116.321z"/>
	
		<linearGradient id="SVGID_12_" gradientUnits="userSpaceOnUse" x1="325.7148" y1="101.231" x2="327.3896" y2="101.231" gradientTransform="matrix(0.9835 0.1806 -0.1806 0.9835 2.7539 -42.9013)">
		<stop  offset="0" style="stop-color:#F9EF89"/>
		<stop  offset="1" style="stop-color:#FFE869"/>
	</linearGradient>
	<path opacity="0.65" fill="url(#SVGID_12_)" d="M306.467,115.8c0.044-0.237-0.288-0.496-0.746-0.58
		c-0.453-0.083-0.859,0.041-0.901,0.277c-0.044,0.237,0.289,0.495,0.744,0.58C306.021,116.162,306.426,116.039,306.467,115.8z"/>
	<g>
		
			<linearGradient id="SVGID_13_" gradientUnits="userSpaceOnUse" x1="328.1787" y1="99.4507" x2="328.1787" y2="75.2358" gradientTransform="matrix(0.9835 0.1806 -0.1806 0.9835 2.7539 -42.9013)">
			<stop  offset="0" style="stop-color:#56534E"/>
			<stop  offset="1" style="stop-color:#8B735A"/>
		</linearGradient>
		<path fill="url(#SVGID_13_)" d="M295.364,100.745c0,0,4.325-13.174,16.537-10.358c12.212,2.813,12.664,14.625,11.309,17.854
			c-1.356,3.231-9.625,7.243-15.632,5.949C301.571,112.898,295.569,108.458,295.364,100.745z"/>
		
			<radialGradient id="SVGID_14_" cx="328.1807" cy="85.4927" r="12.1199" gradientTransform="matrix(0.9835 0.1806 -0.1806 0.9835 2.7539 -42.9013)" gradientUnits="userSpaceOnUse">
			<stop  offset="0" style="stop-color:#BB956B"/>
			<stop  offset="1" style="stop-color:#816F60"/>
		</radialGradient>
		<path fill="url(#SVGID_14_)" d="M296.38,98.878c0,0,3.853-11.069,15.514-8.446c11.664,2.624,12.327,12.633,11.104,15.34
			c-1.227,2.71-9.006,5.943-14.74,4.729C302.519,109.288,296.728,105.413,296.38,98.878z"/>
	</g>
	<g>
		<path fill="#726052" d="M301.415,96.343c0,0,0.915-0.307,2.903-0.229c1.987,0.079,3.016-0.064,3.536,2.031
			c0.521,2.1,0.135,3.934,0.135,3.934s-1.29-0.76-3.656-0.861C301.971,101.12,301.415,96.343,301.415,96.343z"/>
		<path fill="#E9B148" d="M301.726,96.917c0,0,0.764-0.328,2.479-0.396c1.711-0.072,2.585-0.267,3.175,1.498
			c0.593,1.765,0.365,3.644,0.365,3.644s-1.136-0.839-3.175-0.762C302.533,100.977,301.726,96.917,301.726,96.917z"/>
		
			<linearGradient id="SVGID_15_" gradientUnits="userSpaceOnUse" x1="323.3203" y1="86.063" x2="323.3203" y2="82.3926" gradientTransform="matrix(0.9835 0.1806 -0.1806 0.9835 2.7539 -42.9013)">
			<stop  offset="0" style="stop-color:#4B2B1F"/>
			<stop  offset="1" style="stop-color:#83533F"/>
		</linearGradient>
		<path fill="url(#SVGID_15_)" d="M305.99,96.559c0,0-1.545,1.466-1.647,3.43c0,0,1.909-1.912,2.374-3.036L305.99,96.559z"/>
		
			<linearGradient id="SVGID_16_" gradientUnits="userSpaceOnUse" x1="321.7207" y1="85.2993" x2="321.7207" y2="82.9551" gradientTransform="matrix(0.9835 0.1806 -0.1806 0.9835 2.7539 -42.9013)">
			<stop  offset="0" style="stop-color:#F9EF89"/>
			<stop  offset="1" style="stop-color:#FFE869"/>
		</linearGradient>
		<path opacity="0.65" fill="url(#SVGID_16_)" d="M305.503,98.233c-0.118,0.637-0.894,1.028-1.733,0.874s-1.427-0.795-1.31-1.432
			s0.894-1.027,1.733-0.874C305.032,96.958,305.62,97.597,305.503,98.233z"/>
		<path fill="#21221C" d="M304.374,96.665c1.714-0.068,2.367-0.147,2.957,1.617c0.445,1.327,0.44,2.561,0.411,3.095
			c0.018,0.007,0.027,0.012,0.027,0.012s0.203-1.605-0.39-3.37c-0.59-1.765-1.464-1.57-3.175-1.498
			c-1.716,0.068-2.479,0.396-2.479,0.396l0.047,0.019C302.881,96.733,303.014,96.72,304.374,96.665z"/>
	</g>
	<g>
		<path fill="#726052" d="M320.378,102.851c0,0-0.502-0.824-2.078-2.04c-1.574-1.217-2.27-1.988-4.015-0.713
			c-1.748,1.274-2.631,2.929-2.631,2.929s1.478,0.246,3.357,1.686C316.887,106.154,320.378,102.851,320.378,102.851z"/>
		<path fill="#E9B148" d="M319.773,103.089c0,0-0.375-0.741-1.643-1.895c-1.271-1.154-1.812-1.864-3.4-0.891
			c-1.589,0.973-2.619,2.558-2.619,2.558s1.41,0.088,2.923,1.457C316.547,105.684,319.773,103.089,319.773,103.089z"/>
		
			<linearGradient id="SVGID_17_" gradientUnits="userSpaceOnUse" x1="339.0264" y1="102.4058" x2="339.0264" y2="98.7349" gradientTransform="matrix(-0.87 -0.493 -0.493 0.87 660.4752 181.3951)">
			<stop  offset="0" style="stop-color:#4B2B1F"/>
			<stop  offset="1" style="stop-color:#83533F"/>
		</linearGradient>
		<path fill="url(#SVGID_17_)" d="M316.733,100.079c0,0,0.242,2.115-0.94,3.687c0,0-0.235-2.691,0.13-3.851L316.733,100.079z"/>
		
			<linearGradient id="SVGID_18_" gradientUnits="userSpaceOnUse" x1="349.0234" y1="100.4224" x2="349.0234" y2="98.0786" gradientTransform="matrix(-0.6848 -0.3882 -0.5862 1.0343 612.1721 134.6799)">
			<stop  offset="0" style="stop-color:#F9EF89"/>
			<stop  offset="1" style="stop-color:#FFE869"/>
		</linearGradient>
		<path opacity="0.65" fill="url(#SVGID_18_)" d="M313.908,101.249c-0.38,0.669-0.213,1.48,0.372,1.812
			c0.585,0.332,1.366,0.059,1.745-0.612c0.38-0.669,0.213-1.479-0.372-1.813C315.068,100.304,314.288,100.579,313.908,101.249z"/>
		<path fill="#21221C" d="M317.903,101.198c-1.266-1.154-1.719-1.633-3.305-0.661c-1.192,0.731-1.982,1.682-2.301,2.108
			c-0.02-0.006-0.027-0.008-0.027-0.008s0.871-1.36,2.46-2.333c1.589-0.974,2.13-0.264,3.4,0.891
			c1.268,1.153,1.643,1.895,1.643,1.895l-0.047-0.015C319.005,102.208,318.911,102.113,317.903,101.198z"/>
	</g>
	<g>
		
			<linearGradient id="SVGID_19_" gradientUnits="userSpaceOnUse" x1="317.7764" y1="81.7778" x2="321.4455" y2="71.2055" gradientTransform="matrix(0.9882 0.1535 -0.1535 0.9882 1.1862 -34.4157)">
			<stop  offset="0" style="stop-color:#7D6052"/>
			<stop  offset="1" style="stop-color:#917660"/>
		</linearGradient>
		<path fill="url(#SVGID_19_)" d="M299.841,93.69c0,0,3.674-7.044,6.436-9.254l2.595,5.776
			C308.871,90.212,304.431,93.654,299.841,93.69z"/>
		
			<linearGradient id="SVGID_20_" gradientUnits="userSpaceOnUse" x1="317.0742" y1="74.6567" x2="319.7231" y2="76.186" gradientTransform="matrix(0.9882 0.1535 -0.1535 0.9882 1.1862 -34.4157)">
			<stop  offset="0" style="stop-color:#F29068"/>
			<stop  offset="1" style="stop-color:#EF7E5F"/>
		</linearGradient>
		<path fill="url(#SVGID_20_)" d="M306.262,84.285c0,0-0.46,3.592-0.798,4.647c-0.39,1.216-0.06,1.832-2.331,2.905
			c-2.269,1.074-2.093,0.915-2.093,0.915s0.517-2.85,1.685-4.321C303.892,86.961,305.826,84.667,306.262,84.285z"/>
		<path fill="#F7B08F" d="M305.287,88.922c0,0-0.186-0.795-0.876-1.371c0,0,0.78,1.415,0.793,1.725
			C305.211,89.586,305.287,88.922,305.287,88.922z"/>
		<path fill="#F7B08F" d="M305.027,90.229c0,0-0.168-0.842-1.334-1.495c0,0,0.864,0.847,1.148,1.765L305.027,90.229z"/>
		<path fill="#61614F" d="M306.303,84.335c0,0-0.517,3.243-0.91,4.278c-0.473,1.249,0.034,1.804-2.208,2.993
			c-1.698,0.903-2.088,1.013-2.14,1.104c-0.002,0.026-0.005,0.041-0.005,0.041s-0.176,0.159,2.093-0.915
			c2.271-1.073,1.941-1.689,2.331-2.905C305.802,87.876,306.303,84.335,306.303,84.335z"/>
	</g>
	<g>
		
			<linearGradient id="SVGID_21_" gradientUnits="userSpaceOnUse" x1="316.0361" y1="99.7114" x2="319.7057" y2="89.1377" gradientTransform="matrix(-0.8984 -0.4393 -0.4393 0.8984 647.697 150.2719)">
			<stop  offset="0" style="stop-color:#7D6052"/>
			<stop  offset="1" style="stop-color:#917660"/>
		</linearGradient>
		<path fill="url(#SVGID_21_)" d="M323.121,101.402c0,0,1.014-7.881,0.015-11.273l-5.431,3.253
			C317.705,93.381,319.379,98.745,323.121,101.402z"/>
		
			<linearGradient id="SVGID_22_" gradientUnits="userSpaceOnUse" x1="315.335" y1="92.5903" x2="317.9855" y2="94.1206" gradientTransform="matrix(-0.8984 -0.4393 -0.4393 0.8984 647.697 150.2719)">
			<stop  offset="0" style="stop-color:#F29068"/>
			<stop  offset="1" style="stop-color:#EF7E5F"/>
		</linearGradient>
		<path fill="url(#SVGID_22_)" d="M323.234,90.014c0,0-1.677,3.209-2.003,4.266c-0.377,1.221-0.998,1.537,0.248,3.717
			c1.248,2.18,1.196,1.95,1.196,1.95s1.204-2.634,1.09-4.509C323.647,93.563,323.374,90.578,323.234,90.014z"/>
		<path fill="#F7B08F" d="M321.381,94.374c0,0,0.607-0.544,1.503-0.623c0,0-1.449,0.713-1.635,0.962
			C321.063,94.96,321.381,94.374,321.381,94.374z"/>
		<path fill="#F7B08F" d="M320.848,95.596c0,0,0.617-0.597,1.948-0.467c0,0-1.194,0.201-1.948,0.791V95.596z"/>
		<path fill="#61614F" d="M323.171,90.031c0,0-1.43,2.956-1.699,4.029c-0.325,1.297-1.06,1.46,0.098,3.718
			c0.874,1.714,1.136,2.027,1.121,2.132c-0.01,0.022-0.015,0.037-0.015,0.037s0.052,0.229-1.196-1.95
			c-1.246-2.18-0.625-2.496-0.248-3.717C321.558,93.223,323.171,90.031,323.171,90.031z"/>
	</g>
	<g>
		
			<radialGradient id="SVGID_23_" cx="328.9131" cy="78.9126" r="3.7695" gradientTransform="matrix(0.9835 0.1806 -0.1806 0.9835 2.7539 -42.9013)" gradientUnits="userSpaceOnUse">
			<stop  offset="0" style="stop-color:#BC9A79"/>
			<stop  offset="1" style="stop-color:#B8997B"/>
		</radialGradient>
		<path fill="url(#SVGID_23_)" d="M307.656,96.261c0,0,5.258,0.042,7.498,2.158c0,0,1.023-5.963,0.717-6.621
			c-0.304-0.661-4.866-1.57-4.866-1.57S308.369,93.157,307.656,96.261z"/>
		
			<linearGradient id="SVGID_24_" gradientUnits="userSpaceOnUse" x1="328.9131" y1="81.5522" x2="328.9131" y2="88.8623" gradientTransform="matrix(0.9835 0.1806 -0.1806 0.9835 2.7539 -42.9013)">
			<stop  offset="0" style="stop-color:#B8997B"/>
			<stop  offset="1" style="stop-color:#E4C8A1"/>
		</linearGradient>
		<path fill="url(#SVGID_24_)" d="M307.656,96.261c0,0,4.979-0.01,7.498,2.158c0,0-2.242,0.016-4.276,4.514
			c0,0,1.019,0.648,1.282,1.338c0,0-1.076-1.69-5.147-1.585c0,0,0.326-0.617,1.829-0.483
			C308.842,102.203,309.928,98.029,307.656,96.261z"/>
	</g>
	<g>
		
			<linearGradient id="SVGID_25_" gradientUnits="userSpaceOnUse" x1="328.1563" y1="91.5923" x2="328.1563" y2="87.7847" gradientTransform="matrix(0.9835 0.1806 -0.1806 0.9835 2.7539 -42.9013)">
			<stop  offset="0" style="stop-color:#9C7D66"/>
			<stop  offset="1" style="stop-color:#9D7D62"/>
		</linearGradient>
		<path fill="url(#SVGID_25_)" d="M309.695,102.755c0,0,3.527,0.914,1.805,2.197c-1.719,1.283-3.479,2.979-4.409-1.077
			C307.091,103.875,306.029,101.778,309.695,102.755z"/>
		<path fill="#4A4742" d="M309.404,104.118l-0.26,1.282c0,0,1.102,0.338,1.998-0.17c0,0-0.595,0.819-2.262,0.506
			c-1.667-0.316-1.787-1.85-1.787-1.85s0.313,1.054,1.687,1.448l0.396-1.368L309.404,104.118z"/>
		
			<linearGradient id="SVGID_26_" gradientUnits="userSpaceOnUse" x1="328.085" y1="89.4058" x2="328.085" y2="88.4946" gradientTransform="matrix(0.9835 0.1806 -0.1806 0.9835 2.7539 -42.9013)">
			<stop  offset="0" style="stop-color:#762E2A"/>
			<stop  offset="1" style="stop-color:#A23F3A"/>
		</linearGradient>
		<path fill="url(#SVGID_26_)" d="M308.847,103.961c0,0-1.021-1.07,0.604-0.517c1.622,0.556,0.315,0.829,0.315,0.829
			S309.255,104.504,308.847,103.961z"/>
	</g>
	
		<linearGradient id="SVGID_27_" gradientUnits="userSpaceOnUse" x1="336.8164" y1="90.1196" x2="331.2578" y2="90.1196" gradientTransform="matrix(0.9835 0.1806 -0.1806 0.9835 2.7539 -42.9013)">
		<stop  offset="0" style="stop-color:#E4C7A0"/>
		<stop  offset="1" style="stop-color:#AC8C6A"/>
	</linearGradient>
	<path fill="url(#SVGID_27_)" d="M312.423,104.781c0,0,4.132,1.114,5.177,2.585C317.6,107.366,316.011,106.151,312.423,104.781z"/>
	
		<linearGradient id="SVGID_28_" gradientUnits="userSpaceOnUse" x1="348.5303" y1="86.937" x2="348.5303" y2="86.937" gradientTransform="matrix(0.9835 0.1806 -0.1806 0.9835 2.7539 -42.9013)">
		<stop  offset="0" style="stop-color:#E4C7A0"/>
		<stop  offset="1" style="stop-color:#AC8C6A"/>
	</linearGradient>
	<path fill="url(#SVGID_28_)" d="M329.841,105.561"/>
	
		<linearGradient id="SVGID_29_" gradientUnits="userSpaceOnUse" x1="334.5801" y1="91.2046" x2="330.7666" y2="91.2046" gradientTransform="matrix(0.9835 0.1806 -0.1806 0.9835 2.7539 -42.9013)">
		<stop  offset="0" style="stop-color:#E4C7A0"/>
		<stop  offset="1" style="stop-color:#AC8C6A"/>
	</linearGradient>
	<path fill="url(#SVGID_29_)" d="M311.877,105.036c0,0,3.079,2.592,3.194,3.716C315.071,108.751,313.44,106.602,311.877,105.036z"/>
	
		<linearGradient id="SVGID_30_" gradientUnits="userSpaceOnUse" x1="325.3809" y1="88.4507" x2="319.0527" y2="88.4507" gradientTransform="matrix(0.9835 0.1806 -0.1806 0.9835 2.7539 -42.9013)">
		<stop  offset="0" style="stop-color:#E4C7A0"/>
		<stop  offset="1" style="stop-color:#AC8C6A"/>
	</linearGradient>
	<path fill="url(#SVGID_30_)" d="M300.546,101.888c0,0,4.626,0.173,6.242,1.04C306.788,102.928,302.044,102.057,300.546,101.888z"/>
	
		<linearGradient id="SVGID_31_" gradientUnits="userSpaceOnUse" x1="325.1367" y1="90.5034" x2="320.3828" y2="90.5034" gradientTransform="matrix(0.9835 0.1806 -0.1806 0.9835 2.7539 -42.9013)">
		<stop  offset="0" style="stop-color:#E4C7A0"/>
		<stop  offset="1" style="stop-color:#AC8C6A"/>
	</linearGradient>
	<path fill="url(#SVGID_31_)" d="M306.359,103.915c0,0-2.523-0.117-5.018,0.999C301.342,104.914,305.422,104.088,306.359,103.915z"
		/>
	
		<linearGradient id="SVGID_32_" gradientUnits="userSpaceOnUse" x1="324.1924" y1="89.105" x2="324.1924" y2="89.105" gradientTransform="matrix(0.9835 0.1806 -0.1806 0.9835 2.7539 -42.9013)">
		<stop  offset="0" style="stop-color:#E4C7A0"/>
		<stop  offset="1" style="stop-color:#AC8C6A"/>
	</linearGradient>
	<path fill="url(#SVGID_32_)" d="M305.513,103.297"/>
</g>
<g>
	<path fill="#3F1717" d="M79.41,51.472h-0.317c0.422-1.956,0.634-5.736,0.634-11.34c-0.054-8.724-1.534-14.196-4.441-16.417
		c-3.596-2.696-10.601-4.044-21.016-4.044c-13.271,0-21.095,4.706-23.475,14.116c-0.793,3.12-1.189,5.922-1.189,8.407
		c0,7.244,3.436,11.632,10.309,13.164l26.171,5.869C72.695,64.136,76,69.66,76,77.801c0,3.015-0.45,6.372-1.348,10.073
		c-2.855,11.737-7.35,20.434-13.482,26.091c-6.715,6.293-15.861,9.438-27.439,9.438c-9.253,0-16.258-0.979-21.017-2.936
		c-7.137-3.013-10.706-8.459-10.706-16.336c0-1.535,0.131-3.172,0.396-4.918c0.158-9.517,5.577-16.496,16.257-20.937
		c5.762-2.379,11.128-3.569,16.099-3.569c6.186,0,11.446,2.063,15.782,6.186c2.167,2.011,2.643,5.024,1.427,9.041
		c-2.062,6.663-7.508,10.628-16.337,11.896c-4.23,0.582-8.142-0.187-11.737-2.301c-1.798-1.056-3.12-2.827-3.965-5.312
		c-0.371-1.217-0.555-2.406-0.555-3.569c0-1.162,0.21-2.327,0.634-3.49l0.952,1.508c0.21,2.749,1.479,4.863,3.806,6.345
		c2.114,1.321,4.6,1.901,7.455,1.742c10.627-0.685,16.706-3.434,18.24-8.246c0.898-2.908,0.369-4.97-1.586-6.186
		c-3.12-1.956-6.927-2.935-11.42-2.935c-1.269,0-2.855,0.159-4.758,0.477c-7.296,1.216-12.002,2.194-14.116,2.935
		c-7.562,2.643-12.451,6.873-14.672,12.688c-0.158,1.111-0.238,2.169-0.238,3.172c0,7.562,4.705,12.584,14.117,15.068
		c4.176,1.058,11.896,1.746,23.157,2.062c8.141,0.213,14.486-1.691,19.034-5.711c4.124-3.698,7.217-9.646,9.279-17.842
		c0.74-2.856,1.11-5.473,1.11-7.852c0-7.296-3.489-12.055-10.468-14.275l-26.329-5.314c-6.556-2.748-9.834-8.114-9.834-16.099
		c0-2.96,0.476-6.317,1.427-10.071c3.912-15.596,16.468-23.396,37.67-23.396c3.754,0,9.914,0.396,18.478,1.19l2.618,3.41
		c1.745,2.274,4.309,3.411,7.692,3.411c0.635,0,1.638-0.053,3.014-0.159c-3.279,1.957-6.768,7.509-10.468,16.655L79.41,51.472z"/>
	<path fill="#3F1717" d="M91.94,122.926c-1.163-3.488-1.745-7.799-1.745-12.927c0-1.268,0.026-2.59,0.08-3.966
		c-2.274,3.227-6.556,8.592-12.848,16.1c-0.688-2.801-1.058-5.973-1.11-9.518c0-7.029,1.348-15.438,4.044-25.219
		c1.057-3.911,2.193-7.718,3.41-11.419l9.199-6.345c2.431,2.962,4.15,5.024,5.155,6.186c1.004-2.485,2.035-4.917,3.093-7.296
		l4.838,7.931c-3.49,4.44-6.583,11.553-9.279,21.334C94.716,105.136,93.103,113.517,91.94,122.926z M96.54,80.34
		c-2.379-2.273-4.415-3.728-6.106-4.362c-1.745,4.441-3.279,9.095-4.6,13.957c-2.432,8.778-3.727,16.787-3.886,24.03
		c5.234-6.345,8.353-11.209,9.358-14.592c0.317-3.12,0.977-6.425,1.982-9.913C94.081,86.552,95.165,83.512,96.54,80.34z"/>
	<path fill="#3F1717" d="M106.771,103.099c0-7.981,1.507-17.499,4.52-28.548l1.428-5.077l6.186,6.821
		c-1.639,2.485-3.014,5.737-4.124,9.753c-2.169,8.038-3.385,17.739-3.648,29.106c7.614-10.733,13.429-23.342,17.447-37.828
		c0.528-2.063,1.083-4.521,1.665-7.376l4.759,7.693c-6.292,19.667-14.461,34.708-24.506,45.124v-1.586
		C108.012,116.422,106.771,110.396,106.771,103.099z"/>
	<path fill="#3F1717" d="M136.669,112.854c3.277-0.526,7.798-6.369,13.561-17.526l-0.873,3.094
		c-2.168,7.982-6.927,15.94-14.274,23.871c-0.9-3.383-1.348-7.216-1.348-11.5c0-7.188,1.32-15.595,3.965-25.219
		c0.686-2.484,1.4-4.917,2.141-7.296l9.199-8.485c2.696,4.335,4.229,7.216,4.6,8.644c0.635,1.058,0.952,2.247,0.952,3.569
		c0,5.869-5.578,12.583-16.733,20.145C137.012,106.379,136.616,109.948,136.669,112.854z M146.82,75.978
		c-3.701,8.671-6.423,16.363-8.168,23.077c7.824-6.29,11.737-12.079,11.737-17.368c0-0.844-0.132-1.665-0.396-2.458
		C148.934,77.591,147.877,76.506,146.82,75.978z"/>
	<path fill="#3F1717" d="M202.146,77.091c-1.992,0-4.137,0.365-6.435,1.092l-15.397,51.65h-0.517l10.859-50.156
		c-1.992,0.421-3.812,0.632-5.458,0.632c-4.329,0-6.588-1.608-6.78-4.826l0.173-1.437l0.517-0.115
		c-0.192,2.03,1.168,3.045,4.08,3.045c2.106,0,4.921-0.533,8.446-1.601l1.552-7.264c-0.805-0.571-1.552-1.792-2.241-3.661h8.79
		l-2.872,9.365c1.034-0.152,2.049-0.23,3.045-0.23c5.516,0,8.77,2.433,9.768,7.297l-0.575,0.23v-0.23
		C207.911,78.356,205.594,77.091,202.146,77.091z"/>
	<path fill="#3F1717" d="M195.826,145.693c0-11.568,3.696-30.279,11.088-56.135c-1.417,1.036-3.275,2.607-5.572,4.712
		l-10.514,32.002h-0.46l14.02-57.856c-0.804-0.574-1.572-1.799-2.299-3.677h8.734l-8.389,25.566l6.32-6.262l4.079,4.597
		c-3.755,8.771-6.818,17.523-9.194,26.257c-3.676,13.367-5.515,25.298-5.515,35.794c0,2.145,0.076,4.252,0.23,6.32l-0.518,0.229
		l-0.403-1.437C196.362,153.466,195.826,150.096,195.826,145.693z"/>
	<path fill="#3F1717" d="M213.982,115.585c2.375-0.382,5.65-4.614,9.824-12.696l-0.631,2.239
		c-1.571,5.784-5.018,11.549-10.342,17.296c-0.652-2.453-0.977-5.229-0.977-8.332c0-5.209,0.957-11.299,2.872-18.271
		c0.498-1.801,1.015-3.562,1.552-5.287l6.664-6.146c1.953,3.142,3.065,5.229,3.332,6.262c0.46,0.769,0.69,1.631,0.69,2.588
		c0,4.251-4.042,9.115-12.123,14.593C214.23,110.895,213.943,113.48,213.982,115.585z M221.336,88.871
		c-2.681,6.281-4.654,11.854-5.917,16.718c5.668-4.558,8.502-8.75,8.502-12.581c0-0.612-0.095-1.207-0.286-1.782
		C222.867,90.039,222.103,89.252,221.336,88.871z"/>
	<path fill="#3F1717" d="M326.612,146.64c-3.28,0.315-6.477,0.475-9.596,0.475c-12.319,0-22.999-2.592-32.041-7.771
		c-10.099-5.87-16.811-14.329-20.143-25.378c-1.534-5.023-2.301-10.311-2.301-15.861c0-6.186,0.952-12.741,2.856-19.667
		c5.285-19.298,15.886-35.105,31.802-47.425c4.81-3.7,10.097-6.9,15.861-9.596c6.66-3.118,12.238-4.679,16.732-4.679
		c4.229,0,7.321,1.506,9.279,4.521c0.686,1.481,1.03,3.04,1.03,4.679c0,1.217-0.186,2.459-0.556,3.727
		c-0.528,1.852-5.604,8.461-15.227,19.827c-9.622,11.368-14.75,18.24-15.385,20.62c-0.369,1.269-0.556,2.511-0.556,3.727
		c0,3.121,1.058,6.213,3.173,9.279c-4.969-2.484-7.454-6.292-7.454-11.42c0-1.691,0.263-3.516,0.794-5.472
		c0.897-3.278,5.72-10.257,14.471-20.937c8.751-10.679,13.389-16.944,13.92-18.796c0.367-1.321,0.554-2.485,0.554-3.489
		c0-3.119-1.797-4.679-5.393-4.679c-2.169,0-4.731,0.556-7.693,1.666c-23.155,8.564-38.461,26.356-45.917,53.373
		c-1.217,4.546-2.274,9.437-3.173,14.669c-0.104,1.745-0.158,3.439-0.158,5.077c0,23.209,8.963,39.335,26.886,48.377
		c2.695,1.373,7.297,2.379,13.798,3.014c5.022,0.525,9.994,0.525,14.909,0l3.016-0.318c4.281-0.424,13.876-3.014,28.788-7.771
		l-0.081,0.317c-15.278,5.233-24.32,8.169-27.121,8.803L326.612,146.64z"/>
	<path fill="#3F1717" d="M341.125,122.926c-1.163-3.488-1.745-7.799-1.745-12.927c0-1.268,0.026-2.59,0.08-3.966
		c-2.273,3.227-6.558,8.592-12.848,16.1c-0.688-2.801-1.058-5.973-1.111-9.518c0-7.029,1.349-15.438,4.046-25.219
		c1.058-3.911,2.193-7.718,3.409-11.419l9.199-6.345c2.433,2.962,4.151,5.024,5.155,6.186c1.003-2.485,2.033-4.917,3.094-7.296
		l4.837,7.931c-3.488,4.44-6.582,11.553-9.279,21.334C343.9,105.136,342.287,113.517,341.125,122.926z M345.724,80.34
		c-2.379-2.273-4.413-3.728-6.106-4.362c-1.743,4.441-3.278,9.095-4.6,13.957c-2.431,8.778-3.726,16.787-3.885,24.03
		c5.233-6.345,8.352-11.209,9.358-14.592c0.315-3.12,0.977-6.425,1.982-9.913C343.267,86.552,344.349,83.512,345.724,80.34z"/>
	<path fill="#3F1717" d="M380.856,59.72c-2.749,0-5.708,0.503-8.881,1.507l-21.253,71.297h-0.715l14.989-69.235
		c-2.751,0.583-5.262,0.873-7.533,0.873c-5.976,0-9.097-2.22-9.358-6.662l0.237-1.982l0.713-0.159
		c-0.265,2.803,1.612,4.204,5.632,4.204c2.905,0,6.793-0.737,11.656-2.211l2.142-10.026c-1.108-0.789-2.142-2.473-3.091-5.052
		h12.133L373.563,55.2c1.427-0.212,2.827-0.318,4.202-0.318c7.612,0,12.106,3.358,13.482,10.073l-0.793,0.317v-0.317
		C388.814,61.465,385.615,59.72,380.856,59.72z"/>
	<path fill="#3F1717" d="M368.089,115.473c2.908-5.552,5.314-10.311,7.219-14.275h0.793c-0.847,2.379-1.271,4.494-1.271,6.344
		c0,1.956,0.478,3.569,1.427,4.837c5.711-1.851,9.809-3.965,12.293-6.345c-6.08-5.71-11.71-12.581-16.892-20.619
		c7.771-3.489,11.896-5.339,12.37-5.551c4.071-2.168,7.508-5.128,10.311-8.882l4.283,6.819c-2.22,2.591-4.575,7.772-7.06,15.544
		h-0.634c0.478-2.959,0.715-5.444,0.715-7.453c0-2.433-0.345-4.205-1.03-5.315c-4.759,1.481-8.46,3.199-11.104,5.156
		c4.915,8.459,10.361,15.65,16.337,21.569c-12.371,4.813-20.196,9.808-23.474,14.99L368.089,115.473z"/>
</g>
<g>
	<linearGradient id="SVGID_33_" gradientUnits="userSpaceOnUse" x1="0.7549" y1="68.063" x2="93.3838" y2="68.063">
		<stop  offset="0" style="stop-color:#DDB75D"/>
		<stop  offset="1" style="stop-color:#B08940"/>
	</linearGradient>
	<path fill="url(#SVGID_33_)" d="M78.157,50.219H77.84c0.422-1.956,0.635-5.736,0.635-11.34c-0.054-8.724-1.534-14.196-4.441-16.417
		c-3.596-2.696-10.602-4.043-21.016-4.043c-13.271,0-21.095,4.706-23.474,14.116c-0.793,3.12-1.19,5.922-1.19,8.407
		c0,7.244,3.436,11.631,10.31,13.164l26.171,5.869c6.608,2.909,9.913,8.434,9.913,16.575c0,3.014-0.45,6.371-1.348,10.073
		c-2.854,11.736-7.35,20.434-13.481,26.09c-6.715,6.293-15.861,9.438-27.44,9.438c-9.253,0-16.258-0.979-21.016-2.935
		c-7.137-3.014-10.706-8.459-10.706-16.336c0-1.535,0.131-3.173,0.396-4.918c0.159-9.517,5.577-16.496,16.257-20.938
		c5.762-2.379,11.129-3.568,16.1-3.568c6.185,0,11.445,2.062,15.782,6.185c2.167,2.011,2.643,5.024,1.427,9.042
		c-2.062,6.663-7.508,10.628-16.336,11.896c-4.23,0.582-8.143-0.187-11.737-2.302c-1.798-1.055-3.12-2.827-3.965-5.312
		c-0.371-1.216-0.555-2.406-0.555-3.568c0-1.163,0.21-2.328,0.634-3.49l0.952,1.508c0.21,2.748,1.479,4.863,3.806,6.344
		c2.114,1.322,4.6,1.902,7.456,1.743c10.626-0.686,16.706-3.435,18.24-8.246c0.898-2.908,0.369-4.97-1.586-6.187
		c-3.121-1.956-6.927-2.935-11.42-2.935c-1.269,0-2.855,0.159-4.758,0.476c-7.296,1.216-12.002,2.194-14.116,2.935
		C9.768,84.189,4.879,88.417,2.658,94.234C2.5,95.345,2.42,96.403,2.42,97.406c0,7.562,4.705,12.584,14.117,15.068
		c4.176,1.058,11.896,1.745,23.157,2.062c8.142,0.213,14.486-1.691,19.034-5.711c4.124-3.698,7.217-9.646,9.279-17.842
		c0.74-2.856,1.11-5.473,1.11-7.852c0-7.297-3.489-12.055-10.468-14.275l-26.33-5.314c-6.556-2.748-9.833-8.114-9.833-16.099
		c0-2.961,0.476-6.318,1.427-10.071c3.912-15.596,16.469-23.396,37.67-23.396c3.753,0,9.913,0.396,18.478,1.189l2.617,3.41
		c1.745,2.274,4.309,3.411,7.692,3.411c0.635,0,1.638-0.053,3.014-0.159c-3.279,1.957-6.768,7.508-10.469,16.654L78.157,50.219z"/>
	<linearGradient id="SVGID_34_" gradientUnits="userSpaceOnUse" x1="75.064" y1="94.4712" x2="104.8037" y2="94.4712">
		<stop  offset="0" style="stop-color:#DDB75D"/>
		<stop  offset="1" style="stop-color:#B08940"/>
	</linearGradient>
	<path fill="url(#SVGID_34_)" d="M90.687,121.672c-1.164-3.487-1.745-7.798-1.745-12.926c0-1.269,0.026-2.59,0.08-3.966
		c-2.274,3.227-6.557,8.592-12.848,16.099c-0.688-2.8-1.058-5.972-1.11-9.517c0-7.03,1.348-15.438,4.044-25.219
		c1.057-3.911,2.193-7.719,3.41-11.419l9.199-6.345c2.432,2.962,4.15,5.024,5.155,6.186c1.003-2.484,2.035-4.917,3.093-7.295
		l4.838,7.931c-3.49,4.44-6.583,11.553-9.279,21.334C93.462,103.882,91.85,112.264,90.687,121.672z M95.287,79.086
		c-2.379-2.273-4.415-3.728-6.106-4.362c-1.745,4.441-3.279,9.094-4.6,13.958c-2.433,8.777-3.728,16.787-3.886,24.029
		c5.234-6.345,8.353-11.208,9.358-14.591c0.317-3.121,0.978-6.425,1.982-9.913C92.828,85.299,93.911,82.259,95.287,79.086z"/>
	<linearGradient id="SVGID_35_" gradientUnits="userSpaceOnUse" x1="105.5171" y1="94.8677" x2="133.75" y2="94.8677">
		<stop  offset="0" style="stop-color:#DDB75D"/>
		<stop  offset="1" style="stop-color:#B08940"/>
	</linearGradient>
	<path fill="url(#SVGID_35_)" d="M105.517,101.846c0-7.982,1.507-17.499,4.521-28.549l1.428-5.077l6.186,6.821
		c-1.64,2.486-3.014,5.737-4.124,9.754c-2.169,8.038-3.385,17.738-3.648,29.105c7.614-10.733,13.429-23.342,17.448-37.828
		c0.527-2.062,1.083-4.521,1.665-7.376l4.758,7.693c-6.292,19.667-14.46,34.708-24.505,45.124v-1.587
		C106.759,115.169,105.517,109.143,105.517,101.846z"/>
	<linearGradient id="SVGID_36_" gradientUnits="userSpaceOnUse" x1="132.4814" y1="94.7886" x2="153.3389" y2="94.7886">
		<stop  offset="0" style="stop-color:#DDB75D"/>
		<stop  offset="1" style="stop-color:#B08940"/>
	</linearGradient>
	<path fill="url(#SVGID_36_)" d="M135.416,111.6c3.278-0.526,7.798-6.369,13.561-17.525l-0.873,3.094
		c-2.168,7.982-6.926,15.939-14.274,23.87c-0.899-3.383-1.348-7.216-1.348-11.499c0-7.189,1.32-15.595,3.965-25.219
		c0.686-2.484,1.4-4.917,2.141-7.297l9.199-8.485c2.696,4.335,4.229,7.216,4.6,8.644c0.634,1.058,0.952,2.247,0.952,3.569
		c0,5.87-5.579,12.583-16.733,20.144C135.759,105.126,135.362,108.695,135.416,111.6z M145.566,74.725
		c-3.701,8.671-6.423,16.364-8.168,23.078c7.824-6.29,11.737-12.079,11.737-17.368c0-0.845-0.132-1.665-0.396-2.458
		C147.681,76.337,146.624,75.253,145.566,74.725z"/>
	<linearGradient id="SVGID_37_" gradientUnits="userSpaceOnUse" x1="177.1636" y1="95.8892" x2="208.4194" y2="95.8892">
		<stop  offset="0" style="stop-color:#DDB75D"/>
		<stop  offset="1" style="stop-color:#B08940"/>
	</linearGradient>
	<path fill="url(#SVGID_37_)" d="M200.893,75.838c-1.992,0-4.136,0.365-6.435,1.092l-15.397,51.65h-0.517l10.859-50.156
		c-1.992,0.421-3.812,0.631-5.458,0.631c-4.329,0-6.588-1.608-6.78-4.826l0.173-1.437l0.517-0.115
		c-0.192,2.03,1.168,3.045,4.079,3.045c2.106,0,4.921-0.532,8.446-1.601l1.552-7.264c-0.806-0.572-1.552-1.792-2.241-3.661h8.79
		l-2.873,9.365c1.034-0.151,2.049-0.23,3.045-0.23c5.516,0,8.771,2.433,9.768,7.297l-0.575,0.23v-0.23
		C206.657,77.103,204.34,75.838,200.893,75.838z"/>
	<linearGradient id="SVGID_38_" gradientUnits="userSpaceOnUse" x1="189.1143" y1="109.7368" x2="211.5796" y2="109.7368">
		<stop  offset="0" style="stop-color:#DDB75D"/>
		<stop  offset="1" style="stop-color:#B08940"/>
	</linearGradient>
	<path fill="url(#SVGID_38_)" d="M194.573,144.439c0-11.567,3.696-30.278,11.088-56.134c-1.417,1.035-3.275,2.606-5.572,4.712
		l-10.515,32.002h-0.46l14.02-57.857c-0.804-0.574-1.571-1.799-2.298-3.676h8.733l-8.388,25.565l6.32-6.262l4.079,4.598
		c-3.755,8.771-6.818,17.523-9.194,26.257c-3.676,13.367-5.515,25.298-5.515,35.794c0,2.144,0.076,4.251,0.23,6.319l-0.518,0.23
		l-0.403-1.437C195.109,152.213,194.573,148.842,194.573,144.439z"/>
	<linearGradient id="SVGID_39_" gradientUnits="userSpaceOnUse" x1="210.603" y1="102.1528" x2="225.7139" y2="102.1528">
		<stop  offset="0" style="stop-color:#DDB75D"/>
		<stop  offset="1" style="stop-color:#B08940"/>
	</linearGradient>
	<path fill="url(#SVGID_39_)" d="M212.729,114.333c2.374-0.383,5.649-4.614,9.824-12.697l-0.632,2.24
		c-1.571,5.784-5.018,11.548-10.341,17.296c-0.652-2.453-0.977-5.229-0.977-8.332c0-5.209,0.957-11.299,2.873-18.271
		c0.498-1.802,1.015-3.562,1.552-5.287l6.664-6.147c1.953,3.141,3.064,5.229,3.332,6.262c0.46,0.769,0.69,1.63,0.69,2.587
		c0,4.252-4.042,9.115-12.124,14.594C212.978,109.642,212.69,112.227,212.729,114.333z M220.083,87.618
		c-2.681,6.28-4.654,11.854-5.917,16.718c5.667-4.558,8.502-8.751,8.502-12.581c0-0.612-0.096-1.207-0.286-1.782
		C221.614,88.785,220.85,88,220.083,87.618z"/>
	<linearGradient id="SVGID_40_" gradientUnits="userSpaceOnUse" x1="261.2793" y1="80.6724" x2="357.6367" y2="80.6724">
		<stop  offset="0" style="stop-color:#DDB75D"/>
		<stop  offset="1" style="stop-color:#B08940"/>
	</linearGradient>
	<path fill="url(#SVGID_40_)" d="M325.358,145.386c-3.279,0.316-6.477,0.476-9.595,0.476c-12.319,0-22.999-2.593-32.041-7.771
		c-10.1-5.87-16.812-14.33-20.143-25.379c-1.534-5.022-2.301-10.31-2.301-15.861c0-6.186,0.952-12.741,2.856-19.667
		c5.285-19.298,15.886-35.105,31.801-47.425c4.811-3.7,10.098-6.9,15.861-9.597c6.661-3.118,12.239-4.679,16.733-4.679
		c4.229,0,7.321,1.507,9.279,4.521c0.686,1.481,1.03,3.04,1.03,4.679c0,1.217-0.186,2.459-0.556,3.727
		c-0.528,1.852-5.605,8.46-15.228,19.827c-9.622,11.369-14.75,18.241-15.384,20.62c-0.37,1.269-0.556,2.512-0.556,3.727
		c0,3.121,1.058,6.214,3.172,9.28c-4.969-2.485-7.453-6.292-7.453-11.42c0-1.691,0.262-3.517,0.793-5.472
		c0.898-3.277,5.721-10.257,14.472-20.937c8.75-10.68,13.389-16.945,13.92-18.796c0.367-1.321,0.554-2.484,0.554-3.489
		c0-3.119-1.797-4.679-5.393-4.679c-2.169,0-4.731,0.555-7.693,1.666c-23.156,8.564-38.462,26.356-45.917,53.373
		c-1.217,4.547-2.274,9.438-3.173,14.67c-0.105,1.745-0.159,3.439-0.159,5.076c0,23.21,8.964,39.336,26.887,48.378
		c2.694,1.373,7.296,2.379,13.798,3.013c5.022,0.526,9.994,0.526,14.909,0l3.016-0.318c4.28-0.423,13.876-3.013,28.787-7.771
		l-0.08,0.318c-15.279,5.233-24.321,8.168-27.121,8.802L325.358,145.386z"/>
	<linearGradient id="SVGID_41_" gradientUnits="userSpaceOnUse" x1="324.2471" y1="94.4712" x2="353.9873" y2="94.4712">
		<stop  offset="0" style="stop-color:#DDB75D"/>
		<stop  offset="1" style="stop-color:#B08940"/>
	</linearGradient>
	<path fill="url(#SVGID_41_)" d="M339.871,121.672c-1.162-3.487-1.745-7.798-1.745-12.926c0-1.269,0.027-2.59,0.081-3.966
		c-2.274,3.227-6.558,8.592-12.849,16.099c-0.688-2.8-1.057-5.972-1.111-9.517c0-7.03,1.35-15.438,4.047-25.219
		c1.057-3.911,2.192-7.719,3.409-11.419l9.199-6.345c2.433,2.962,4.151,5.024,5.154,6.186c1.004-2.484,2.034-4.917,3.094-7.295
		l4.837,7.931c-3.487,4.44-6.582,11.553-9.279,21.334C342.647,103.882,341.034,112.264,339.871,121.672z M344.471,79.086
		c-2.379-2.273-4.413-3.728-6.107-4.362c-1.742,4.441-3.277,9.094-4.599,13.958c-2.431,8.777-3.726,16.787-3.885,24.029
		c5.233-6.345,8.352-11.208,9.357-14.591c0.316-3.121,0.977-6.425,1.982-9.913C342.014,85.299,343.095,82.259,344.471,79.086z"/>
	<linearGradient id="SVGID_42_" gradientUnits="userSpaceOnUse" x1="346.8525" y1="86.145" x2="389.9941" y2="86.145">
		<stop  offset="0" style="stop-color:#DDB75D"/>
		<stop  offset="1" style="stop-color:#B08940"/>
	</linearGradient>
	<path fill="url(#SVGID_42_)" d="M379.604,58.467c-2.749,0-5.708,0.503-8.881,1.506l-21.254,71.297h-0.715l14.99-69.234
		c-2.751,0.583-5.263,0.873-7.534,0.873c-5.975,0-9.096-2.22-9.357-6.662l0.237-1.983l0.712-0.159
		c-0.264,2.803,1.613,4.204,5.633,4.204c2.905,0,6.792-0.737,11.656-2.211l2.142-10.026c-1.109-0.788-2.142-2.472-3.092-5.052
		h12.134l-3.966,12.928c1.428-0.212,2.827-0.318,4.203-0.318c7.612,0,12.106,3.358,13.482,10.073l-0.793,0.317v-0.317
		C387.561,60.212,384.361,58.467,379.604,58.467z"/>
	<linearGradient id="SVGID_43_" gradientUnits="userSpaceOnUse" x1="366.8359" y1="95.3833" x2="397.3691" y2="95.3833">
		<stop  offset="0" style="stop-color:#DDB75D"/>
		<stop  offset="1" style="stop-color:#B08940"/>
	</linearGradient>
	<path fill="url(#SVGID_43_)" d="M366.836,114.219c2.908-5.551,5.313-10.31,7.218-14.275h0.794c-0.848,2.38-1.271,4.494-1.271,6.345
		c0,1.956,0.477,3.569,1.427,4.837c5.711-1.851,9.808-3.965,12.293-6.345c-6.081-5.71-11.71-12.581-16.893-20.619
		c7.771-3.489,11.896-5.34,12.371-5.551c4.07-2.167,7.507-5.128,10.31-8.882l4.284,6.82c-2.221,2.591-4.575,7.772-7.06,15.544
		h-0.634c0.478-2.96,0.715-5.444,0.715-7.455c0-2.432-0.346-4.204-1.03-5.314c-4.759,1.481-8.46,3.199-11.104,5.155
		c4.915,8.46,10.361,15.651,16.336,21.57c-12.37,4.812-20.196,9.808-23.474,14.989L366.836,114.219z"/>
</g>
<text transform="matrix(1 0 0 1 -7.1772 121.5132)" display="none"><tspan x="0" y="0" display="inline" fill="#010202" font-family="'ACharmingFontItalic'" font-size="162.4177">Save </tspan><tspan x="181.927" y="0" display="inline" fill="#010202" font-family="'ACharmingFontItalic'" font-size="117.6668">the</tspan><tspan x="226.742" y="0" display="inline" fill="#010202" font-family="'ACharmingFontItalic'" font-size="162.4177"> Cats</tspan></text>
<g>
	
		<linearGradient id="SVGID_44_" gradientUnits="userSpaceOnUse" x1="400.9834" y1="12.6963" x2="400.9834" y2="54.561" gradientTransform="matrix(-0.8928 -0.1918 -0.21 0.9777 416.5491 80.4508)">
		<stop  offset="0" style="stop-color:#56534E"/>
		<stop  offset="1" style="stop-color:#8B735A"/>
	</linearGradient>
	<path fill="url(#SVGID_44_)" d="M39.543,33.742c-1.284,5.971-4.1,15.909-2.5,20.147c0.376,0.998,2.564,0.875,3.364,1.072
		c2.202,0.539,4.424,1.216,6.689,1.704c1.886,0.406,5.48,1.473,7.796,1.882c1.05,0.187,1.686,0.26,2.492-0.432
		c3.631-3.116,4.605-12.674,6.018-19.245c2.416-11.242-0.967-21.504-7.557-22.921C49.259,14.533,41.958,22.5,39.543,33.742z"/>
	
		<radialGradient id="SVGID_45_" cx="407.1133" cy="93.8657" r="17.7763" gradientTransform="matrix(-0.8437 -0.2599 -0.3019 1.1176 421.707 42.2491)" gradientUnits="userSpaceOnUse">
		<stop  offset="0" style="stop-color:#51402D"/>
		<stop  offset="1" style="stop-color:#322A21"/>
	</radialGradient>
	<path fill="url(#SVGID_45_)" d="M31.096,40.176c-1.108,4.104-1.714,10.961,1.249,12.411c4.992,2.441,8.808,1.361,14.906,3.239
		c7.22,2.224,7.806,3.375,14.277,3.077c2.263-0.104,4.118-5.004,4.886-7.849c2.959-10.948-2.55-22.259-12.304-25.265
		C44.358,22.787,34.053,29.229,31.096,40.176z"/>
	
		<radialGradient id="SVGID_46_" cx="375.6396" cy="27.5107" r="16.27" gradientTransform="matrix(-0.7267 -0.1561 -0.2174 1.0117 329.9351 69.5233)" gradientUnits="userSpaceOnUse">
		<stop  offset="0" style="stop-color:#51402D"/>
		<stop  offset="1" style="stop-color:#322A21"/>
	</radialGradient>
	<path fill="url(#SVGID_46_)" d="M40.512,36.46c-2.153,10.021,0.792,19.152,6.575,20.396c5.784,1.24,12.219-5.875,14.372-15.897
		c2.154-10.021-0.789-19.152-6.573-20.396C49.102,19.321,42.666,26.436,40.512,36.46z"/>
	<g opacity="0.75">
		
			<radialGradient id="SVGID_47_" cx="380.8193" cy="74.063" r="2.6707" gradientTransform="matrix(-0.9612 -0.2756 -0.2756 0.9612 420.8272 85.2648)" gradientUnits="userSpaceOnUse">
			<stop  offset="0" style="stop-color:#473024"/>
			<stop  offset="1" style="stop-color:#2B1B12"/>
		</radialGradient>
		<path fill="url(#SVGID_47_)" d="M37.275,52.794c-0.136,0.51-0.369,1.114-0.88,1.241c-0.823,0.204-1.767-0.488-2.826-0.768
			c-1.353-0.359-1.947-0.625-2.459-1.275c-0.169-0.213-0.018-0.544,0.053-0.816c0.363-1.371,2.025-2.118,3.711-1.671
			C36.563,49.951,37.635,51.424,37.275,52.794z"/>
		<path fill="#3D1717" d="M32.514,49.661c0,0-0.656,0.646-0.673,2.188c0,0,0.795-2.153,1.043-2.312L32.514,49.661z"/>
		<path fill="#3D1717" d="M33.678,49.395c0,0-0.633,1.358-0.853,2.773c0,0,0.945-1.661,1.303-2.772
			C34.128,49.395,33.921,49.348,33.678,49.395z"/>
		<path fill="#3D1717" d="M35.162,49.602c0,0-0.584,1.129-0.589,2.811c0,0,0.721-1.567,0.988-2.661
			C35.561,49.751,35.372,49.601,35.162,49.602z"/>
		<path fill="#3D1717" d="M36.391,50.31c0,0-0.393,0.952-0.346,2.547c0,0,0.571-1.276,0.733-2.146
			C36.779,50.711,36.498,50.371,36.391,50.31z"/>
	</g>
	<g opacity="0.75">
		
			<radialGradient id="SVGID_48_" cx="-224.5469" cy="39.8862" r="2.5193" gradientTransform="matrix(0.9858 0.1682 -0.1682 0.9858 288.0289 55.6635)" gradientUnits="userSpaceOnUse">
			<stop  offset="0" style="stop-color:#473024"/>
			<stop  offset="1" style="stop-color:#2B1B12"/>
		</radialGradient>
		<path fill="url(#SVGID_48_)" d="M57.049,56.973c-0.084,0.435-0.014,0.872,0.177,1.271c0.37,0.775,1.482,0.881,2.546,0.843
			c1.009-0.037,1.124,0.279,2.549-0.085c0.341-0.085,0.391-0.58,0.458-0.929c0.247-1.286-0.836-2.575-2.42-2.878
			C58.777,54.892,57.295,55.687,57.049,56.973z"/>
		<path fill="#3D1717" d="M62.262,56.271c0,0,0.287,0.799-0.315,2.088c0,0,0.198-2.109,0.057-2.34L62.262,56.271z"/>
		<path fill="#3D1717" d="M61.398,55.583c0,0-0.016,1.385-0.397,2.647c0,0-0.121-1.759,0.024-2.829
			C61.024,55.402,61.215,55.449,61.398,55.583z"/>
		<path fill="#3D1717" d="M60.084,55.161c0,0,0.034,1.174-0.635,2.572c0,0,0.026-1.59,0.241-2.608
			C59.689,55.125,59.91,55.077,60.084,55.161z"/>
		<path fill="#3D1717" d="M58.778,55.26c0,0-0.054,0.948-0.731,2.255c0,0,0.037-1.29,0.247-2.078
			C58.293,55.437,58.664,55.269,58.778,55.26z"/>
	</g>
	
		<radialGradient id="SVGID_49_" cx="350.6094" cy="-68.5317" r="5.8639" gradientTransform="matrix(-0.9871 0.1598 0.1598 0.9871 417.1822 60.3838)" gradientUnits="userSpaceOnUse">
		<stop  offset="0" style="stop-color:#8B735A"/>
		<stop  offset="1" style="stop-color:#604241"/>
	</radialGradient>
	<path opacity="0.25" fill="url(#SVGID_49_)" d="M62.638,53.652c0,0,0.675-16.716-4.678-11.889c0,0-1.285,7.899,0.847,12.913
		C60.939,59.69,62.638,53.652,62.638,53.652z"/>
	
		<radialGradient id="SVGID_50_" cx="-234.9824" cy="147.0601" r="5.8636" gradientTransform="matrix(0.8502 0.5266 -0.5266 0.8502 315.5412 42.7748)" gradientUnits="userSpaceOnUse">
		<stop  offset="0" style="stop-color:#8B735A"/>
		<stop  offset="1" style="stop-color:#604241"/>
	</radialGradient>
	<path opacity="0.25" fill="url(#SVGID_50_)" d="M34.14,47.607c0,0,5.791-15.695,8.882-9.18c0,0-1.846,7.785-5.74,11.596
		C33.389,53.835,34.14,47.607,34.14,47.607z"/>
	<path fill="#3D1717" d="M57.896,34.379c0,0-4.669,7.35-5.427,18.291c-0.758,10.937,1.748,0.915,1.748,0.915l0.947-3.245
		l3.821-13.907"/>
	
		<radialGradient id="SVGID_51_" cx="340.9287" cy="126.3579" r="12.8792" gradientTransform="matrix(-0.8705 -0.4921 -0.4921 0.8705 417.2945 98.2165)" gradientUnits="userSpaceOnUse">
		<stop  offset="0" style="stop-color:#51402D"/>
		<stop  offset="1" style="stop-color:#322A21"/>
	</radialGradient>
	<path fill="url(#SVGID_51_)" d="M56.8,34.642c-0.887,8.583-6.499,21.623-6.499,21.623l3.283,1.005l0.833-1.635
		c1.011-5.167,8.265-17.053,8.265-17.053c4.347-12.691,3.593-20.157-1.301-10.146C60.416,30.409,56.8,34.642,56.8,34.642z"/>
	<g>
		
			<radialGradient id="SVGID_52_" cx="364.2637" cy="13.7695" r="3.4875" gradientTransform="matrix(-0.9836 -0.1809 -0.1548 0.8418 411.8719 109.6639)" gradientUnits="userSpaceOnUse">
			<stop  offset="0" style="stop-color:#51402D"/>
			<stop  offset="1" style="stop-color:#322A21"/>
		</radialGradient>
		<path fill="url(#SVGID_52_)" d="M47.531,55.223c-0.106,0.587-0.256,1.399,0.252,1.706c1.216,0.732,1.959,0.527,3.351,0.783
			c1.243,0.229,1.824,0.738,2.926,0.666c0.73-0.049,1.002-1.036,1.134-1.745c0.316-1.718-1.143-3.426-3.26-3.814
			C49.817,52.429,47.847,53.505,47.531,55.223z"/>
		<path fill="#3D1717" d="M54.483,54.232c0,0,0.391,1.066-0.401,2.795c0,0,0.246-2.819,0.054-3.127L54.483,54.232z"/>
		<path fill="#3D1717" d="M53.325,53.326c0,0-0.007,1.847-0.504,3.539c0,0-0.18-2.35,0.003-3.78
			C52.824,53.084,53.077,53.146,53.325,53.326z"/>
		<path fill="#3D1717" d="M51.564,52.775c0,0,0.057,1.566-0.82,3.441c0,0,0.018-2.126,0.295-3.485
			C51.04,52.731,51.331,52.665,51.564,52.775z"/>
		<path fill="#3D1717" d="M49.82,52.917c0,0-0.06,1.269-0.955,3.021c0,0,0.039-1.723,0.312-2.776
			C49.177,53.162,49.672,52.933,49.82,52.917z"/>
	</g>
	<path fill="#3D1717" d="M45.832,30.755c0,0,1.656,8.549-1.641,19.006c-3.3,10.456-1.961,0.212-1.961,0.212l0.306-3.366l1.53-14.34"
		/>
	
		<radialGradient id="SVGID_53_" cx="253.2871" cy="-63.7417" r="13.2256" gradientTransform="matrix(0.9933 -0.1149 0.1149 0.9933 -200.9496 129.8888)" gradientUnits="userSpaceOnUse">
		<stop  offset="0" style="stop-color:#51402D"/>
		<stop  offset="1" style="stop-color:#322A21"/>
	</radialGradient>
	<path fill="url(#SVGID_53_)" d="M46.941,32.223c-2.52,8.252-2.611,23.471-2.611,23.471l-3.204-0.747l-0.151-2.456
		c1.078-5.156-0.986-18.927-0.986-18.927c0.932-13.382,4.527-19.966,5.146-8.841C45.255,26.918,46.941,32.223,46.941,32.223z"/>
	<g>
		
			<radialGradient id="SVGID_54_" cx="245.8701" cy="12.2173" r="3.448" gradientTransform="matrix(0.9841 0.1775 -0.1519 0.8423 -196.9394 -0.4528)" gradientUnits="userSpaceOnUse">
			<stop  offset="0" style="stop-color:#51402D"/>
			<stop  offset="1" style="stop-color:#322A21"/>
		</radialGradient>
		<path fill="url(#SVGID_54_)" d="M46.882,54.822c-0.108,0.61-0.276,1.47-0.887,1.553c-1.549,0.208-1.975-0.61-3.34-0.857
			c-1.563-0.283-1.967,0.038-3.339-0.754c-0.389-0.224-0.182-0.875-0.101-1.325c0.308-1.719,2.277-2.802,4.395-2.421
			C45.728,51.4,47.192,53.103,46.882,54.822z"/>
		<path fill="#3D1717" d="M40.726,51.444c0,0-0.744,0.859-0.612,2.754c0,0,0.766-2.724,1.051-2.944L40.726,51.444z"/>
		<path fill="#3D1717" d="M42.128,51.002c0,0-0.644,1.732-0.775,3.491c0,0,0.998-2.136,1.33-3.537
			C42.683,50.957,42.422,50.923,42.128,51.002z"/>
		<path fill="#3D1717" d="M43.971,51.109c0,0-0.606,1.445-0.447,3.51c0,0,0.733-1.996,0.955-3.365
			C44.479,51.254,44.227,51.088,43.971,51.109z"/>
		<path fill="#3D1717" d="M45.552,51.858c0,0-0.39,1.208-0.171,3.161c0,0,0.573-1.626,0.688-2.708
			C46.069,52.312,45.686,51.922,45.552,51.858z"/>
	</g>
	
		<ellipse transform="matrix(-0.9777 -0.2101 0.2101 -0.9777 103.5343 51.5498)" fill="#3D1717" cx="54.505" cy="20.275" rx="11.688" ry="9.722"/>
	
		<ellipse transform="matrix(-0.996 -0.089 0.089 -0.996 102.8019 64.1888)" fill="#E9B148" cx="52.832" cy="29.803" rx="0.423" ry="0.778"/>
	<path fill="#3D1717" d="M50.692,31.935c-0.338,1.272,0.017,2.313,0.793,2.324c0.775,0.009,1.677-1.012,2.014-2.285
		c0.337-1.275-0.017-2.315-0.791-2.326C51.932,29.635,51.03,30.661,50.692,31.935z"/>
	<path fill="#E9B148" d="M50.864,31.937c-0.295,1.115,0.016,2.026,0.697,2.037c0.677,0.01,1.468-0.886,1.764-2.002
		c0.297-1.114-0.014-2.029-0.692-2.038C51.951,29.923,51.162,30.821,50.864,31.937z"/>
	
		<linearGradient id="SVGID_55_" gradientUnits="userSpaceOnUse" x1="478.542" y1="38.0161" x2="480.2061" y2="38.0161" gradientTransform="matrix(-0.608 -0.0085 -0.6434 2.4264 368.5925 -56.6152)">
		<stop  offset="0" style="stop-color:#F9EF89"/>
		<stop  offset="1" style="stop-color:#FFE869"/>
	</linearGradient>
	<path opacity="0.65" fill="url(#SVGID_55_)" d="M52.173,31.559c0.154-0.58,0.505-1.048,0.784-1.042
		c0.28,0.003,0.383,0.476,0.228,1.057c-0.155,0.579-0.506,1.044-0.783,1.043C52.122,32.614,52.019,32.141,52.173,31.559z"/>
	<g>
		
			<linearGradient id="SVGID_56_" gradientUnits="userSpaceOnUse" x1="372.7607" y1="25.7793" x2="372.7607" y2="1.729" gradientTransform="matrix(-0.9777 -0.21 -0.21 0.9777 422.2108 81.6851)">
			<stop  offset="0" style="stop-color:#35332F"/>
			<stop  offset="1" style="stop-color:#6D5A45"/>
		</linearGradient>
		<path fill="url(#SVGID_56_)" d="M68.668,20.905c0,0,1.045-13.732-11.229-15.797C45.166,3.042,40.255,13.704,40.27,17.184
			c0.014,3.481,6.072,10.308,12.077,11.407C58.351,29.691,65.545,27.902,68.668,20.905z"/>
		
			<radialGradient id="SVGID_57_" cx="372.7607" cy="11.9165" r="12.0369" gradientTransform="matrix(-0.9777 -0.21 -0.21 0.9777 422.2108 81.6851)" gradientUnits="userSpaceOnUse">
			<stop  offset="0" style="stop-color:#51402D"/>
			<stop  offset="1" style="stop-color:#322A21"/>
		</radialGradient>
		<path fill="url(#SVGID_57_)" d="M68.447,18.807c0,0,0.679-11.622-11.018-13.652c-11.697-2.032-16.115,6.897-16.021,9.848
			c0.092,2.952,5.999,8.878,11.722,9.948C58.854,26.02,65.642,24.667,68.447,18.807z"/>
	</g>
	<g>
		<path fill="#726052" d="M64.791,14.565c0,0-0.72-0.631-2.576-1.314c-1.853-0.684-2.741-1.209-4.016,0.517
			c-1.276,1.727-1.623,3.557-1.623,3.557s1.473-0.207,3.682,0.601C62.466,18.733,64.791,14.565,64.791,14.565z"/>
		<path fill="#30A736" d="M64.287,14.971c0,0-0.575-0.591-2.119-1.307c-1.545-0.717-2.271-1.229-3.487,0.165
			c-1.215,1.395-1.721,3.203-1.721,3.203s1.362-0.336,3.203,0.511C62.003,18.391,64.287,14.971,64.287,14.971z"/>
		
			<linearGradient id="SVGID_58_" gradientUnits="userSpaceOnUse" x1="367.9326" y1="12.481" x2="367.9326" y2="8.8359" gradientTransform="matrix(-0.9777 -0.21 -0.21 0.9777 422.2108 81.6851)">
			<stop  offset="0" style="stop-color:#4B2B1F"/>
			<stop  offset="1" style="stop-color:#83533F"/>
		</linearGradient>
		<path fill="url(#SVGID_58_)" d="M60.513,13.021c0,0,0.858,1.933,0.208,3.773c0,0-1.025-2.48-1.022-3.688L60.513,13.021z"/>
		
			<linearGradient id="SVGID_59_" gradientUnits="userSpaceOnUse" x1="366.3447" y1="11.7227" x2="366.3447" y2="9.395" gradientTransform="matrix(-0.9777 -0.21 -0.21 0.9777 422.2108 81.6851)">
			<stop  offset="0" style="stop-color:#BAD374"/>
			<stop  offset="1" style="stop-color:#6EB52F"/>
		</linearGradient>
		<path opacity="0.65" fill="url(#SVGID_59_)" d="M60.323,14.743c-0.134,0.629,0.428,1.282,1.259,1.46
			c0.828,0.178,1.61-0.187,1.744-0.816c0.136-0.628-0.429-1.281-1.257-1.46C61.241,13.75,60.458,14.115,60.323,14.743z"/>
		<path fill="#21221C" d="M61.955,13.733c-1.544-0.715-2.114-1.037-3.328,0.359c-0.914,1.046-1.38,2.18-1.554,2.68
			c-0.017,0.001-0.028,0.001-0.028,0.001s0.421-1.549,1.637-2.944c1.216-1.394,1.941-0.882,3.487-0.165
			c1.544,0.716,2.119,1.307,2.119,1.307l-0.047,0.001C63.298,14.363,63.182,14.303,61.955,13.733z"/>
	</g>
	<g>
		<path fill="#726052" d="M44.921,13.317c0,0,0.774-0.563,2.681-1.08c1.906-0.516,2.839-0.959,3.955,0.875
			c1.117,1.833,1.299,3.688,1.299,3.688s-1.45-0.338-3.72,0.271C46.865,17.678,44.921,13.317,44.921,13.317z"/>
		<path fill="#30A736" d="M45.385,13.767c0,0,0.625-0.539,2.228-1.114c1.603-0.575,2.371-1.02,3.458,0.476
			c1.085,1.498,1.428,3.345,1.428,3.345s-1.327-0.456-3.235,0.223C47.356,17.375,45.385,13.767,45.385,13.767z"/>
		
			<linearGradient id="SVGID_60_" gradientUnits="userSpaceOnUse" x1="321.0654" y1="18.2798" x2="321.0654" y2="14.6343" gradientTransform="matrix(0.9925 -0.122 0.122 0.9925 -271.2557 36.8335)">
			<stop  offset="0" style="stop-color:#4B2B1F"/>
			<stop  offset="1" style="stop-color:#83533F"/>
		</linearGradient>
		<path fill="url(#SVGID_60_)" d="M49.319,12.162c0,0-1.028,1.848-0.543,3.739c0,0,1.242-2.378,1.348-3.582L49.319,12.162z"/>
		
			<linearGradient id="SVGID_61_" gradientUnits="userSpaceOnUse" x1="63.7163" y1="28.2261" x2="66.1807" y2="28.2261" gradientTransform="matrix(0.9707 0.2403 -0.2403 0.9707 -5.9958 -28.551)">
			<stop  offset="0" style="stop-color:#BAD374"/>
			<stop  offset="1" style="stop-color:#6EB52F"/>
		</linearGradient>
		<path opacity="0.65" fill="url(#SVGID_61_)" d="M51.464,14.309c0.095,0.759-0.369,1.44-1.029,1.522
			c-0.664,0.081-1.277-0.468-1.37-1.227c-0.092-0.758,0.368-1.439,1.03-1.521C50.759,13.003,51.37,13.55,51.464,14.309z"/>
		<path fill="#21221C" d="M47.819,12.742c1.602-0.575,2.199-0.844,3.284,0.653c0.815,1.125,1.179,2.297,1.311,2.809
			c0.016,0.001,0.027,0.004,0.027,0.004s-0.285-1.58-1.37-3.078c-1.087-1.496-1.855-1.051-3.458-0.476
			c-1.602,0.575-2.228,1.114-2.228,1.114l0.048,0.004C46.426,13.25,46.546,13.199,47.819,12.742z"/>
	</g>
	<g>
		
			<linearGradient id="SVGID_62_" gradientUnits="userSpaceOnUse" x1="364.4141" y1="9.4839" x2="368.0587" y2="-1.0179" gradientTransform="matrix(-0.9716 -0.2368 -0.2368 0.9716 420.4034 90.1243)">
			<stop  offset="0" style="stop-color:#413128"/>
			<stop  offset="1" style="stop-color:#534435"/>
		</linearGradient>
		<path fill="url(#SVGID_62_)" d="M67.246,12.73c0,0-0.69-7.862-2.381-10.939l-4.58,4.31C60.285,6.101,63.051,10.949,67.246,12.73z"
			/>
		
			<linearGradient id="SVGID_63_" gradientUnits="userSpaceOnUse" x1="363.7158" y1="2.4102" x2="366.346" y2="3.9287" gradientTransform="matrix(-0.9716 -0.2368 -0.2368 0.9716 420.4034 90.1243)">
			<stop  offset="0" style="stop-color:#F29068"/>
			<stop  offset="1" style="stop-color:#EF7E5F"/>
		</linearGradient>
		<path fill="url(#SVGID_63_)" d="M64.936,1.658c0,0-0.944,3.47-1.037,4.565c-0.106,1.264-0.644,1.703,1.032,3.552
			c1.672,1.852,1.574,1.637,1.574,1.637s0.609-2.812,0.097-4.605C66.09,5.014,65.19,2.175,64.936,1.658z"/>
		<path fill="#F7B08F" d="M64.064,6.283c0,0,0.474-0.658,1.324-0.925c0,0-1.254,1.001-1.38,1.281
			C63.879,6.921,64.064,6.283,64.064,6.283z"/>
		<path fill="#F7B08F" d="M63.806,7.582c0,0,0.475-0.708,1.792-0.865c0,0-1.114,0.448-1.724,1.181L63.806,7.582z"/>
		<path fill="#61614F" d="M64.878,1.689c0,0-0.759,3.171-0.792,4.271c-0.041,1.326-0.718,1.641,0.885,3.586
			c1.216,1.475,1.532,1.723,1.542,1.827c-0.003,0.026-0.007,0.04-0.007,0.04s0.098,0.214-1.574-1.637
			c-1.675-1.849-1.138-2.289-1.032-3.552C63.991,5.128,64.878,1.689,64.878,1.689z"/>
	</g>
	<g>
		
			<linearGradient id="SVGID_64_" gradientUnits="userSpaceOnUse" x1="293.0205" y1="16.8657" x2="296.6651" y2="6.364" gradientTransform="matrix(0.9981 -0.0615 0.0615 0.9981 -247.5248 12.9832)">
			<stop  offset="0" style="stop-color:#413128"/>
			<stop  offset="1" style="stop-color:#534435"/>
		</linearGradient>
		<path fill="url(#SVGID_64_)" d="M42.955,10.944c0,0,2.068-7.617,4.275-10.347l3.748,5.05C50.978,5.647,47.4,9.932,42.955,10.944z"
			/>
		
			<linearGradient id="SVGID_65_" gradientUnits="userSpaceOnUse" x1="292.3242" y1="9.7905" x2="294.9561" y2="11.3101" gradientTransform="matrix(0.9981 -0.0615 0.0615 0.9981 -247.5248 12.9832)">
			<stop  offset="0" style="stop-color:#F29068"/>
			<stop  offset="1" style="stop-color:#EF7E5F"/>
		</linearGradient>
		<path fill="url(#SVGID_65_)" d="M47.186,0.454c0,0,0.314,3.583,0.212,4.677c-0.117,1.261,0.332,1.79-1.642,3.314
			c-1.974,1.526-1.839,1.333-1.839,1.333s-0.103-2.873,0.717-4.55C45.455,3.552,46.842,0.918,47.186,0.454z"/>
		<path fill="#F7B08F" d="M47.225,5.158c0,0-0.348-0.728-1.14-1.144c0,0,1.056,1.207,1.135,1.505
			C47.294,5.818,47.225,5.158,47.225,5.158z"/>
		<path fill="#F7B08F" d="M47.25,6.483c0,0-0.34-0.782-1.61-1.17c0,0,1.019,0.64,1.487,1.468L47.25,6.483z"/>
		<path fill="#61614F" d="M47.237,0.493c0,0,0.188,3.256,0.025,4.343c-0.196,1.314,0.416,1.742-1.505,3.375
			c-1.455,1.236-1.812,1.426-1.84,1.528c0,0.024,0.001,0.039,0.001,0.039s-0.135,0.194,1.839-1.333
			c1.973-1.524,1.524-2.053,1.642-3.314C47.5,4.036,47.237,0.493,47.237,0.493z"/>
	</g>
	<g>
		
			<radialGradient id="SVGID_66_" cx="373.4893" cy="5.3818" r="3.7436" gradientTransform="matrix(-0.9777 -0.21 -0.21 0.9777 422.2108 81.6851)" gradientUnits="userSpaceOnUse">
			<stop  offset="0" style="stop-color:#7A664F"/>
			<stop  offset="1" style="stop-color:#675744"/>
		</radialGradient>
		<path fill="url(#SVGID_66_)" d="M59.097,12.114c0,0-4.838-1.962-7.698-0.872c0,0,1.332-5.86,1.861-6.35
			c0.531-0.49,5.062,0.413,5.062,0.413S59.624,8.994,59.097,12.114z"/>
		
			<linearGradient id="SVGID_67_" gradientUnits="userSpaceOnUse" x1="373.4893" y1="8.0029" x2="373.4893" y2="15.2627" gradientTransform="matrix(-0.9777 -0.21 -0.21 0.9777 422.2108 81.6851)">
			<stop  offset="0" style="stop-color:#544637"/>
			<stop  offset="1" style="stop-color:#736653"/>
		</linearGradient>
		<path fill="url(#SVGID_67_)" d="M59.097,12.114c0,0-4.564-1.904-7.698-0.872c0,0,2.051,0.865,2.207,5.766
			c0,0-1.183,0.208-1.688,0.74c0,0,1.631-1.141,5.327,0.505c0,0-0.066-0.69-1.497-1.139C55.748,17.113,56.339,12.871,59.097,12.114z
			"/>
	</g>
	<g>
		
			<linearGradient id="SVGID_68_" gradientUnits="userSpaceOnUse" x1="372.7373" y1="17.9736" x2="372.7373" y2="14.1919" gradientTransform="matrix(-0.9777 -0.21 -0.21 0.9777 422.2108 81.6851)">
			<stop  offset="0" style="stop-color:#9C7D66"/>
			<stop  offset="1" style="stop-color:#9D7D62"/>
		</linearGradient>
		<path fill="url(#SVGID_68_)" d="M54.757,17.295c0,0-3.584-0.503-2.492,1.329c1.09,1.832,2.058,4.058,4.454,0.69
			C56.719,19.314,58.492,17.795,54.757,17.295z"/>
		<path fill="#4A4742" d="M54.505,18.657l-0.251,1.274c0,0-1.139-0.108-1.766-0.916c0,0,0.233,0.979,1.882,1.325
			c1.649,0.345,2.342-1.018,2.342-1.018s-0.69,0.849-2.096,0.687l0.157-1.406L54.505,18.657z"/>
		
			<linearGradient id="SVGID_69_" gradientUnits="userSpaceOnUse" x1="372.665" y1="15.8022" x2="372.665" y2="14.895" gradientTransform="matrix(-0.9777 -0.21 -0.21 0.9777 422.2108 81.6851)">
			<stop  offset="0" style="stop-color:#762E2A"/>
			<stop  offset="1" style="stop-color:#A23F3A"/>
		</linearGradient>
		<path fill="url(#SVGID_69_)" d="M55.077,18.725c0,0,1.342-0.593-0.357-0.705c-1.701-0.107-0.608,0.642-0.608,0.642
			S54.493,19.068,55.077,18.725z"/>
	</g>
	
		<linearGradient id="SVGID_70_" gradientUnits="userSpaceOnUse" x1="381.3369" y1="16.5122" x2="375.8164" y2="16.5122" gradientTransform="matrix(-0.9777 -0.21 -0.21 0.9777 422.2108 81.6851)">
		<stop  offset="0" style="stop-color:#7C6853"/>
		<stop  offset="1" style="stop-color:#96856D"/>
	</linearGradient>
	<path fill="url(#SVGID_70_)" d="M51.483,18.116c0,0-4.215-0.552-5.733,0.401C45.75,18.517,47.673,18.007,51.483,18.116z"/>
	
		<linearGradient id="SVGID_71_" gradientUnits="userSpaceOnUse" x1="392.9707" y1="13.3516" x2="392.9707" y2="13.3516" gradientTransform="matrix(-0.9777 -0.21 -0.21 0.9777 422.2108 81.6851)">
		<stop  offset="0" style="stop-color:#E4C7A0"/>
		<stop  offset="1" style="stop-color:#AC8C6A"/>
	</linearGradient>
	<path fill="url(#SVGID_71_)" d="M35.208,12.203"/>
	
		<linearGradient id="SVGID_72_" gradientUnits="userSpaceOnUse" x1="379.1162" y1="17.5884" x2="375.3281" y2="17.5884" gradientTransform="matrix(-0.9777 -0.21 -0.21 0.9777 422.2108 81.6851)">
		<stop  offset="0" style="stop-color:#7C6853"/>
		<stop  offset="1" style="stop-color:#96856D"/>
	</linearGradient>
	<path fill="url(#SVGID_72_)" d="M51.888,18.557c0,0-3.813,1.206-4.345,2.193C47.542,20.75,49.857,19.399,51.888,18.557z"/>
	
		<linearGradient id="SVGID_73_" gradientUnits="userSpaceOnUse" x1="369.9814" y1="14.8555" x2="363.6943" y2="14.8555" gradientTransform="matrix(-0.9777 -0.21 -0.21 0.9777 422.2108 81.6851)">
		<stop  offset="0" style="stop-color:#7C6853"/>
		<stop  offset="1" style="stop-color:#96856D"/>
	</linearGradient>
	<path fill="url(#SVGID_73_)" d="M63.48,19.982c0,0-4.312-1.602-6.124-1.422C57.356,18.56,62.041,19.566,63.48,19.982z"/>
	
		<linearGradient id="SVGID_74_" gradientUnits="userSpaceOnUse" x1="369.7383" y1="16.894" x2="365.0146" y2="16.894" gradientTransform="matrix(-0.9777 -0.21 -0.21 0.9777 422.2108 81.6851)">
		<stop  offset="0" style="stop-color:#7C6853"/>
		<stop  offset="1" style="stop-color:#96856D"/>
	</linearGradient>
	<path fill="url(#SVGID_74_)" d="M57.375,19.629c0,0,2.361,0.852,4.224,2.826C61.599,22.456,58.17,20.146,57.375,19.629z"/>
	
		<linearGradient id="SVGID_75_" gradientUnits="userSpaceOnUse" x1="368.7988" y1="15.5049" x2="368.7988" y2="15.5049" gradientTransform="matrix(-0.9777 -0.21 -0.21 0.9777 422.2108 81.6851)">
		<stop  offset="0" style="stop-color:#E4C7A0"/>
		<stop  offset="1" style="stop-color:#AC8C6A"/>
	</linearGradient>
	<path fill="url(#SVGID_75_)" d="M58.388,19.385"/>
</g>
</svg>
